<?xml version="1.0" encoding="utf-8" standalone="no"?>
<!DOCTYPE svg PUBLIC "-//W3C//DTD SVG 1.1//EN"
  "http://www.w3.org/Graphics/SVG/1.1/DTD/svg11.dtd">
<svg xmlns:xlink="http://www.w3.org/1999/xlink" width="411.846619pt" height="222.590369pt" viewBox="0 0 411.846619 222.590369" xmlns="http://www.w3.org/2000/svg" version="1.1">
 <metadata>
  <rdf:RDF xmlns:dc="http://purl.org/dc/elements/1.1/" xmlns:cc="http://creativecommons.org/ns#" xmlns:rdf="http://www.w3.org/1999/02/22-rdf-syntax-ns#">
   <cc:Work>
    <dc:type rdf:resource="http://purl.org/dc/dcmitype/StillImage"/>
    <dc:date>2024-12-03T14:38:02.156537</dc:date>
    <dc:format>image/svg+xml</dc:format>
    <dc:creator>
     <cc:Agent>
      <dc:title>Matplotlib v3.9.2, https://matplotlib.org/</dc:title>
     </cc:Agent>
    </dc:creator>
   </cc:Work>
  </rdf:RDF>
 </metadata>
 <defs>
  <style type="text/css">*{stroke-linejoin: round; stroke-linecap: butt}</style>
 </defs>
 <g id="figure_1">
  <g id="patch_1">
   <path d="M 0 222.590369 
L 411.846619 222.590369 
L 411.846619 0 
L 0 0 
z
" style="fill: #ffffff"/>
  </g>
  <g id="axes_1">
   <g id="patch_2">
    <path d="M 44.267188 186.113807 
L 208.445369 186.113807 
L 208.445369 21.935625 
L 44.267188 21.935625 
z
" style="fill: #ffffff"/>
   </g>
   <g id="matplotlib.axis_1">
    <g id="xtick_1">
     <g id="line2d_1">
      <defs>
       <path id="m73817006da" d="M 0 0 
L 0 3.5 
" style="stroke: #000000; stroke-width: 0.8"/>
      </defs>
      <g>
       <use xlink:href="#m73817006da" x="44.267188" y="186.113807" style="stroke: #000000; stroke-width: 0.8"/>
      </g>
     </g>
     <g id="text_1">
      <!-- 100 -->
      <g transform="translate(35.925781 200.271619) scale(0.1 -0.1)">
       <defs>
        <path id="ArialMT-31" d="M 2384 0 
L 1822 0 
L 1822 3584 
Q 1619 3391 1289 3197 
Q 959 3003 697 2906 
L 697 3450 
Q 1169 3672 1522 3987 
Q 1875 4303 2022 4600 
L 2384 4600 
L 2384 0 
z
" transform="scale(0.015625)"/>
        <path id="ArialMT-30" d="M 266 2259 
Q 266 3072 433 3567 
Q 600 4063 929 4331 
Q 1259 4600 1759 4600 
Q 2128 4600 2406 4451 
Q 2684 4303 2865 4023 
Q 3047 3744 3150 3342 
Q 3253 2941 3253 2259 
Q 3253 1453 3087 958 
Q 2922 463 2592 192 
Q 2263 -78 1759 -78 
Q 1097 -78 719 397 
Q 266 969 266 2259 
z
M 844 2259 
Q 844 1131 1108 757 
Q 1372 384 1759 384 
Q 2147 384 2411 759 
Q 2675 1134 2675 2259 
Q 2675 3391 2411 3762 
Q 2147 4134 1753 4134 
Q 1366 4134 1134 3806 
Q 844 3388 844 2259 
z
" transform="scale(0.015625)"/>
       </defs>
       <use xlink:href="#ArialMT-31"/>
       <use xlink:href="#ArialMT-30" x="55.615234"/>
       <use xlink:href="#ArialMT-30" x="111.230469"/>
      </g>
     </g>
    </g>
    <g id="xtick_2">
     <g id="line2d_2">
      <g>
       <use xlink:href="#m73817006da" x="75.539222" y="186.113807" style="stroke: #000000; stroke-width: 0.8"/>
      </g>
     </g>
     <g id="text_2">
      <!-- 80 -->
      <g transform="translate(69.978285 200.271619) scale(0.1 -0.1)">
       <defs>
        <path id="ArialMT-38" d="M 1131 2484 
Q 781 2613 612 2850 
Q 444 3088 444 3419 
Q 444 3919 803 4259 
Q 1163 4600 1759 4600 
Q 2359 4600 2725 4251 
Q 3091 3903 3091 3403 
Q 3091 3084 2923 2848 
Q 2756 2613 2416 2484 
Q 2838 2347 3058 2040 
Q 3278 1734 3278 1309 
Q 3278 722 2862 322 
Q 2447 -78 1769 -78 
Q 1091 -78 675 323 
Q 259 725 259 1325 
Q 259 1772 486 2073 
Q 713 2375 1131 2484 
z
M 1019 3438 
Q 1019 3113 1228 2906 
Q 1438 2700 1772 2700 
Q 2097 2700 2305 2904 
Q 2513 3109 2513 3406 
Q 2513 3716 2298 3927 
Q 2084 4138 1766 4138 
Q 1444 4138 1231 3931 
Q 1019 3725 1019 3438 
z
M 838 1322 
Q 838 1081 952 856 
Q 1066 631 1291 507 
Q 1516 384 1775 384 
Q 2178 384 2440 643 
Q 2703 903 2703 1303 
Q 2703 1709 2433 1975 
Q 2163 2241 1756 2241 
Q 1359 2241 1098 1978 
Q 838 1716 838 1322 
z
" transform="scale(0.015625)"/>
       </defs>
       <use xlink:href="#ArialMT-38"/>
       <use xlink:href="#ArialMT-30" x="55.615234"/>
      </g>
     </g>
    </g>
    <g id="xtick_3">
     <g id="line2d_3">
      <g>
       <use xlink:href="#m73817006da" x="106.811257" y="186.113807" style="stroke: #000000; stroke-width: 0.8"/>
      </g>
     </g>
     <g id="text_3">
      <!-- 60 -->
      <g transform="translate(101.250319 200.271619) scale(0.1 -0.1)">
       <defs>
        <path id="ArialMT-36" d="M 3184 3459 
L 2625 3416 
Q 2550 3747 2413 3897 
Q 2184 4138 1850 4138 
Q 1581 4138 1378 3988 
Q 1113 3794 959 3422 
Q 806 3050 800 2363 
Q 1003 2672 1297 2822 
Q 1591 2972 1913 2972 
Q 2475 2972 2870 2558 
Q 3266 2144 3266 1488 
Q 3266 1056 3080 686 
Q 2894 316 2569 119 
Q 2244 -78 1831 -78 
Q 1128 -78 684 439 
Q 241 956 241 2144 
Q 241 3472 731 4075 
Q 1159 4600 1884 4600 
Q 2425 4600 2770 4297 
Q 3116 3994 3184 3459 
z
M 888 1484 
Q 888 1194 1011 928 
Q 1134 663 1356 523 
Q 1578 384 1822 384 
Q 2178 384 2434 671 
Q 2691 959 2691 1453 
Q 2691 1928 2437 2201 
Q 2184 2475 1800 2475 
Q 1419 2475 1153 2201 
Q 888 1928 888 1484 
z
" transform="scale(0.015625)"/>
       </defs>
       <use xlink:href="#ArialMT-36"/>
       <use xlink:href="#ArialMT-30" x="55.615234"/>
      </g>
     </g>
    </g>
    <g id="xtick_4">
     <g id="line2d_4">
      <g>
       <use xlink:href="#m73817006da" x="138.083291" y="186.113807" style="stroke: #000000; stroke-width: 0.8"/>
      </g>
     </g>
     <g id="text_4">
      <!-- 40 -->
      <g transform="translate(132.522354 200.271619) scale(0.1 -0.1)">
       <defs>
        <path id="ArialMT-34" d="M 2069 0 
L 2069 1097 
L 81 1097 
L 81 1613 
L 2172 4581 
L 2631 4581 
L 2631 1613 
L 3250 1613 
L 3250 1097 
L 2631 1097 
L 2631 0 
L 2069 0 
z
M 2069 1613 
L 2069 3678 
L 634 1613 
L 2069 1613 
z
" transform="scale(0.015625)"/>
       </defs>
       <use xlink:href="#ArialMT-34"/>
       <use xlink:href="#ArialMT-30" x="55.615234"/>
      </g>
     </g>
    </g>
    <g id="xtick_5">
     <g id="line2d_5">
      <g>
       <use xlink:href="#m73817006da" x="169.355326" y="186.113807" style="stroke: #000000; stroke-width: 0.8"/>
      </g>
     </g>
     <g id="text_5">
      <!-- 20 -->
      <g transform="translate(163.794389 200.271619) scale(0.1 -0.1)">
       <defs>
        <path id="ArialMT-32" d="M 3222 541 
L 3222 0 
L 194 0 
Q 188 203 259 391 
Q 375 700 629 1000 
Q 884 1300 1366 1694 
Q 2113 2306 2375 2664 
Q 2638 3022 2638 3341 
Q 2638 3675 2398 3904 
Q 2159 4134 1775 4134 
Q 1369 4134 1125 3890 
Q 881 3647 878 3216 
L 300 3275 
Q 359 3922 746 4261 
Q 1134 4600 1788 4600 
Q 2447 4600 2831 4234 
Q 3216 3869 3216 3328 
Q 3216 3053 3103 2787 
Q 2991 2522 2730 2228 
Q 2469 1934 1863 1422 
Q 1356 997 1212 845 
Q 1069 694 975 541 
L 3222 541 
z
" transform="scale(0.015625)"/>
       </defs>
       <use xlink:href="#ArialMT-32"/>
       <use xlink:href="#ArialMT-30" x="55.615234"/>
      </g>
     </g>
    </g>
    <g id="xtick_6">
     <g id="line2d_6">
      <g>
       <use xlink:href="#m73817006da" x="200.627361" y="186.113807" style="stroke: #000000; stroke-width: 0.8"/>
      </g>
     </g>
     <g id="text_6">
      <!-- 0 -->
      <g transform="translate(197.846892 200.271619) scale(0.1 -0.1)">
       <use xlink:href="#ArialMT-30"/>
      </g>
     </g>
    </g>
    <g id="text_7">
     <!-- Molecule Percentile -->
     <g transform="translate(79.675028 213.416932) scale(0.1 -0.1)">
      <defs>
       <path id="Arial-BoldMT-4d" d="M 453 0 
L 453 4581 
L 1838 4581 
L 2669 1456 
L 3491 4581 
L 4878 4581 
L 4878 0 
L 4019 0 
L 4019 3606 
L 3109 0 
L 2219 0 
L 1313 3606 
L 1313 0 
L 453 0 
z
" transform="scale(0.015625)"/>
       <path id="Arial-BoldMT-6f" d="M 256 1706 
Q 256 2144 472 2553 
Q 688 2963 1083 3178 
Q 1478 3394 1966 3394 
Q 2719 3394 3200 2905 
Q 3681 2416 3681 1669 
Q 3681 916 3195 420 
Q 2709 -75 1972 -75 
Q 1516 -75 1102 131 
Q 688 338 472 736 
Q 256 1134 256 1706 
z
M 1156 1659 
Q 1156 1166 1390 903 
Q 1625 641 1969 641 
Q 2313 641 2545 903 
Q 2778 1166 2778 1666 
Q 2778 2153 2545 2415 
Q 2313 2678 1969 2678 
Q 1625 2678 1390 2415 
Q 1156 2153 1156 1659 
z
" transform="scale(0.015625)"/>
       <path id="Arial-BoldMT-6c" d="M 459 0 
L 459 4581 
L 1338 4581 
L 1338 0 
L 459 0 
z
" transform="scale(0.015625)"/>
       <path id="Arial-BoldMT-65" d="M 2381 1056 
L 3256 909 
Q 3088 428 2723 176 
Q 2359 -75 1813 -75 
Q 947 -75 531 491 
Q 203 944 203 1634 
Q 203 2459 634 2926 
Q 1066 3394 1725 3394 
Q 2466 3394 2894 2905 
Q 3322 2416 3303 1406 
L 1103 1406 
Q 1113 1016 1316 798 
Q 1519 581 1822 581 
Q 2028 581 2168 693 
Q 2309 806 2381 1056 
z
M 2431 1944 
Q 2422 2325 2234 2523 
Q 2047 2722 1778 2722 
Q 1491 2722 1303 2513 
Q 1116 2303 1119 1944 
L 2431 1944 
z
" transform="scale(0.015625)"/>
       <path id="Arial-BoldMT-63" d="M 3353 2338 
L 2488 2181 
Q 2444 2441 2289 2572 
Q 2134 2703 1888 2703 
Q 1559 2703 1364 2476 
Q 1169 2250 1169 1719 
Q 1169 1128 1367 884 
Q 1566 641 1900 641 
Q 2150 641 2309 783 
Q 2469 925 2534 1272 
L 3397 1125 
Q 3263 531 2881 228 
Q 2500 -75 1859 -75 
Q 1131 -75 698 384 
Q 266 844 266 1656 
Q 266 2478 700 2936 
Q 1134 3394 1875 3394 
Q 2481 3394 2839 3133 
Q 3197 2872 3353 2338 
z
" transform="scale(0.015625)"/>
       <path id="Arial-BoldMT-75" d="M 2644 0 
L 2644 497 
Q 2463 231 2167 78 
Q 1872 -75 1544 -75 
Q 1209 -75 943 72 
Q 678 219 559 484 
Q 441 750 441 1219 
L 441 3319 
L 1319 3319 
L 1319 1794 
Q 1319 1094 1367 936 
Q 1416 778 1544 686 
Q 1672 594 1869 594 
Q 2094 594 2272 717 
Q 2450 841 2515 1023 
Q 2581 1206 2581 1919 
L 2581 3319 
L 3459 3319 
L 3459 0 
L 2644 0 
z
" transform="scale(0.015625)"/>
       <path id="Arial-BoldMT-20" transform="scale(0.015625)"/>
       <path id="Arial-BoldMT-50" d="M 466 0 
L 466 4581 
L 1950 4581 
Q 2794 4581 3050 4513 
Q 3444 4409 3709 4064 
Q 3975 3719 3975 3172 
Q 3975 2750 3822 2462 
Q 3669 2175 3433 2011 
Q 3197 1847 2953 1794 
Q 2622 1728 1994 1728 
L 1391 1728 
L 1391 0 
L 466 0 
z
M 1391 3806 
L 1391 2506 
L 1897 2506 
Q 2444 2506 2628 2578 
Q 2813 2650 2917 2803 
Q 3022 2956 3022 3159 
Q 3022 3409 2875 3571 
Q 2728 3734 2503 3775 
Q 2338 3806 1838 3806 
L 1391 3806 
z
" transform="scale(0.015625)"/>
       <path id="Arial-BoldMT-72" d="M 1300 0 
L 422 0 
L 422 3319 
L 1238 3319 
L 1238 2847 
Q 1447 3181 1614 3287 
Q 1781 3394 1994 3394 
Q 2294 3394 2572 3228 
L 2300 2463 
Q 2078 2606 1888 2606 
Q 1703 2606 1575 2504 
Q 1447 2403 1373 2137 
Q 1300 1872 1300 1025 
L 1300 0 
z
" transform="scale(0.015625)"/>
       <path id="Arial-BoldMT-6e" d="M 3478 0 
L 2600 0 
L 2600 1694 
Q 2600 2231 2544 2389 
Q 2488 2547 2361 2634 
Q 2234 2722 2056 2722 
Q 1828 2722 1647 2597 
Q 1466 2472 1398 2265 
Q 1331 2059 1331 1503 
L 1331 0 
L 453 0 
L 453 3319 
L 1269 3319 
L 1269 2831 
Q 1703 3394 2363 3394 
Q 2653 3394 2893 3289 
Q 3134 3184 3257 3021 
Q 3381 2859 3429 2653 
Q 3478 2447 3478 2063 
L 3478 0 
z
" transform="scale(0.015625)"/>
       <path id="Arial-BoldMT-74" d="M 1981 3319 
L 1981 2619 
L 1381 2619 
L 1381 1281 
Q 1381 875 1398 808 
Q 1416 741 1477 697 
Q 1538 653 1625 653 
Q 1747 653 1978 738 
L 2053 56 
Q 1747 -75 1359 -75 
Q 1122 -75 931 4 
Q 741 84 652 211 
Q 563 338 528 553 
Q 500 706 500 1172 
L 500 2619 
L 97 2619 
L 97 3319 
L 500 3319 
L 500 3978 
L 1381 4491 
L 1381 3319 
L 1981 3319 
z
" transform="scale(0.015625)"/>
       <path id="Arial-BoldMT-69" d="M 459 3769 
L 459 4581 
L 1338 4581 
L 1338 3769 
L 459 3769 
z
M 459 0 
L 459 3319 
L 1338 3319 
L 1338 0 
L 459 0 
z
" transform="scale(0.015625)"/>
      </defs>
      <use xlink:href="#Arial-BoldMT-4d"/>
      <use xlink:href="#Arial-BoldMT-6f" x="83.300781"/>
      <use xlink:href="#Arial-BoldMT-6c" x="144.384766"/>
      <use xlink:href="#Arial-BoldMT-65" x="172.167969"/>
      <use xlink:href="#Arial-BoldMT-63" x="227.783203"/>
      <use xlink:href="#Arial-BoldMT-75" x="283.398438"/>
      <use xlink:href="#Arial-BoldMT-6c" x="344.482422"/>
      <use xlink:href="#Arial-BoldMT-65" x="372.265625"/>
      <use xlink:href="#Arial-BoldMT-20" x="427.880859"/>
      <use xlink:href="#Arial-BoldMT-50" x="455.664062"/>
      <use xlink:href="#Arial-BoldMT-65" x="522.363281"/>
      <use xlink:href="#Arial-BoldMT-72" x="577.978516"/>
      <use xlink:href="#Arial-BoldMT-63" x="616.894531"/>
      <use xlink:href="#Arial-BoldMT-65" x="672.509766"/>
      <use xlink:href="#Arial-BoldMT-6e" x="728.125"/>
      <use xlink:href="#Arial-BoldMT-74" x="789.208984"/>
      <use xlink:href="#Arial-BoldMT-69" x="822.509766"/>
      <use xlink:href="#Arial-BoldMT-6c" x="850.292969"/>
      <use xlink:href="#Arial-BoldMT-65" x="878.076172"/>
     </g>
    </g>
   </g>
   <g id="matplotlib.axis_2">
    <g id="ytick_1">
     <g id="line2d_7">
      <defs>
       <path id="md0a21908ff" d="M 0 0 
L -3.5 0 
" style="stroke: #000000; stroke-width: 0.8"/>
      </defs>
      <g>
       <use xlink:href="#md0a21908ff" x="44.267188" y="186.113807" style="stroke: #000000; stroke-width: 0.8"/>
      </g>
     </g>
     <g id="text_8">
      <!-- 0 -->
      <g transform="translate(31.70625 189.692713) scale(0.1 -0.1)">
       <use xlink:href="#ArialMT-30"/>
      </g>
     </g>
    </g>
    <g id="ytick_2">
     <g id="line2d_8">
      <g>
       <use xlink:href="#md0a21908ff" x="44.267188" y="154.841772" style="stroke: #000000; stroke-width: 0.8"/>
      </g>
     </g>
     <g id="text_9">
      <!-- 20 -->
      <g transform="translate(26.145313 158.420678) scale(0.1 -0.1)">
       <use xlink:href="#ArialMT-32"/>
       <use xlink:href="#ArialMT-30" x="55.615234"/>
      </g>
     </g>
    </g>
    <g id="ytick_3">
     <g id="line2d_9">
      <g>
       <use xlink:href="#md0a21908ff" x="44.267188" y="123.569738" style="stroke: #000000; stroke-width: 0.8"/>
      </g>
     </g>
     <g id="text_10">
      <!-- 40 -->
      <g transform="translate(26.145313 127.148644) scale(0.1 -0.1)">
       <use xlink:href="#ArialMT-34"/>
       <use xlink:href="#ArialMT-30" x="55.615234"/>
      </g>
     </g>
    </g>
    <g id="ytick_4">
     <g id="line2d_10">
      <g>
       <use xlink:href="#md0a21908ff" x="44.267188" y="92.297703" style="stroke: #000000; stroke-width: 0.8"/>
      </g>
     </g>
     <g id="text_11">
      <!-- 60 -->
      <g transform="translate(26.145313 95.876609) scale(0.1 -0.1)">
       <use xlink:href="#ArialMT-36"/>
       <use xlink:href="#ArialMT-30" x="55.615234"/>
      </g>
     </g>
    </g>
    <g id="ytick_5">
     <g id="line2d_11">
      <g>
       <use xlink:href="#md0a21908ff" x="44.267188" y="61.025668" style="stroke: #000000; stroke-width: 0.8"/>
      </g>
     </g>
     <g id="text_12">
      <!-- 80 -->
      <g transform="translate(26.145313 64.604575) scale(0.1 -0.1)">
       <use xlink:href="#ArialMT-38"/>
       <use xlink:href="#ArialMT-30" x="55.615234"/>
      </g>
     </g>
    </g>
    <g id="ytick_6">
     <g id="line2d_12">
      <g>
       <use xlink:href="#md0a21908ff" x="44.267188" y="29.753634" style="stroke: #000000; stroke-width: 0.8"/>
      </g>
     </g>
     <g id="text_13">
      <!-- 100 -->
      <g transform="translate(20.584375 33.33254) scale(0.1 -0.1)">
       <use xlink:href="#ArialMT-31"/>
       <use xlink:href="#ArialMT-30" x="55.615234"/>
       <use xlink:href="#ArialMT-30" x="111.230469"/>
      </g>
     </g>
    </g>
    <g id="text_14">
     <!-- True Positives Recalled (%) -->
     <g transform="translate(14.479688 169.04581) rotate(-90) scale(0.1 -0.1)">
      <defs>
       <path id="Arial-BoldMT-54" d="M 1497 0 
L 1497 3806 
L 138 3806 
L 138 4581 
L 3778 4581 
L 3778 3806 
L 2422 3806 
L 2422 0 
L 1497 0 
z
" transform="scale(0.015625)"/>
       <path id="Arial-BoldMT-73" d="M 150 947 
L 1031 1081 
Q 1088 825 1259 692 
Q 1431 559 1741 559 
Q 2081 559 2253 684 
Q 2369 772 2369 919 
Q 2369 1019 2306 1084 
Q 2241 1147 2013 1200 
Q 950 1434 666 1628 
Q 272 1897 272 2375 
Q 272 2806 612 3100 
Q 953 3394 1669 3394 
Q 2350 3394 2681 3172 
Q 3013 2950 3138 2516 
L 2309 2363 
Q 2256 2556 2107 2659 
Q 1959 2763 1684 2763 
Q 1338 2763 1188 2666 
Q 1088 2597 1088 2488 
Q 1088 2394 1175 2328 
Q 1294 2241 1995 2081 
Q 2697 1922 2975 1691 
Q 3250 1456 3250 1038 
Q 3250 581 2869 253 
Q 2488 -75 1741 -75 
Q 1063 -75 667 200 
Q 272 475 150 947 
z
" transform="scale(0.015625)"/>
       <path id="Arial-BoldMT-76" d="M 1372 0 
L 34 3319 
L 956 3319 
L 1581 1625 
L 1763 1059 
Q 1834 1275 1853 1344 
Q 1897 1484 1947 1625 
L 2578 3319 
L 3481 3319 
L 2163 0 
L 1372 0 
z
" transform="scale(0.015625)"/>
       <path id="Arial-BoldMT-52" d="M 469 0 
L 469 4581 
L 2416 4581 
Q 3150 4581 3483 4457 
Q 3816 4334 4016 4018 
Q 4216 3703 4216 3297 
Q 4216 2781 3912 2445 
Q 3609 2109 3006 2022 
Q 3306 1847 3501 1637 
Q 3697 1428 4028 894 
L 4588 0 
L 3481 0 
L 2813 997 
Q 2456 1531 2325 1670 
Q 2194 1809 2047 1861 
Q 1900 1913 1581 1913 
L 1394 1913 
L 1394 0 
L 469 0 
z
M 1394 2644 
L 2078 2644 
Q 2744 2644 2909 2700 
Q 3075 2756 3169 2893 
Q 3263 3031 3263 3238 
Q 3263 3469 3139 3611 
Q 3016 3753 2791 3791 
Q 2678 3806 2116 3806 
L 1394 3806 
L 1394 2644 
z
" transform="scale(0.015625)"/>
       <path id="Arial-BoldMT-61" d="M 1116 2306 
L 319 2450 
Q 453 2931 781 3162 
Q 1109 3394 1756 3394 
Q 2344 3394 2631 3255 
Q 2919 3116 3036 2902 
Q 3153 2688 3153 2116 
L 3144 1091 
Q 3144 653 3186 445 
Q 3228 238 3344 0 
L 2475 0 
Q 2441 88 2391 259 
Q 2369 338 2359 363 
Q 2134 144 1878 34 
Q 1622 -75 1331 -75 
Q 819 -75 523 203 
Q 228 481 228 906 
Q 228 1188 362 1408 
Q 497 1628 739 1745 
Q 981 1863 1438 1950 
Q 2053 2066 2291 2166 
L 2291 2253 
Q 2291 2506 2166 2614 
Q 2041 2722 1694 2722 
Q 1459 2722 1328 2630 
Q 1197 2538 1116 2306 
z
M 2291 1594 
Q 2122 1538 1756 1459 
Q 1391 1381 1278 1306 
Q 1106 1184 1106 997 
Q 1106 813 1243 678 
Q 1381 544 1594 544 
Q 1831 544 2047 700 
Q 2206 819 2256 991 
Q 2291 1103 2291 1419 
L 2291 1594 
z
" transform="scale(0.015625)"/>
       <path id="Arial-BoldMT-64" d="M 3503 0 
L 2688 0 
L 2688 488 
Q 2484 203 2207 64 
Q 1931 -75 1650 -75 
Q 1078 -75 670 386 
Q 263 847 263 1672 
Q 263 2516 659 2955 
Q 1056 3394 1663 3394 
Q 2219 3394 2625 2931 
L 2625 4581 
L 3503 4581 
L 3503 0 
z
M 1159 1731 
Q 1159 1200 1306 963 
Q 1519 619 1900 619 
Q 2203 619 2415 876 
Q 2628 1134 2628 1647 
Q 2628 2219 2422 2470 
Q 2216 2722 1894 2722 
Q 1581 2722 1370 2473 
Q 1159 2225 1159 1731 
z
" transform="scale(0.015625)"/>
       <path id="Arial-BoldMT-28" d="M 1916 -1347 
L 1313 -1347 
Q 834 -625 584 153 
Q 334 931 334 1659 
Q 334 2563 644 3369 
Q 913 4069 1325 4659 
L 1925 4659 
Q 1497 3713 1336 3048 
Q 1175 2384 1175 1641 
Q 1175 1128 1270 590 
Q 1366 53 1531 -431 
Q 1641 -750 1916 -1347 
z
" transform="scale(0.015625)"/>
       <path id="Arial-BoldMT-25" d="M 278 3450 
Q 278 4066 548 4362 
Q 819 4659 1281 4659 
Q 1759 4659 2029 4364 
Q 2300 4069 2300 3450 
Q 2300 2834 2029 2537 
Q 1759 2241 1297 2241 
Q 819 2241 548 2536 
Q 278 2831 278 3450 
z
M 963 3456 
Q 963 3009 1066 2856 
Q 1144 2744 1281 2744 
Q 1422 2744 1500 2856 
Q 1600 3009 1600 3456 
Q 1600 3903 1500 4053 
Q 1422 4169 1281 4169 
Q 1144 4169 1066 4056 
Q 963 3903 963 3456 
z
M 1950 -175 
L 1300 -175 
L 3741 4659 
L 4372 4659 
L 1950 -175 
z
M 3369 1028 
Q 3369 1644 3639 1941 
Q 3909 2238 4378 2238 
Q 4850 2238 5120 1941 
Q 5391 1644 5391 1028 
Q 5391 409 5120 112 
Q 4850 -184 4388 -184 
Q 3909 -184 3639 112 
Q 3369 409 3369 1028 
z
M 4053 1031 
Q 4053 584 4156 434 
Q 4234 319 4372 319 
Q 4513 319 4588 431 
Q 4691 584 4691 1031 
Q 4691 1478 4591 1631 
Q 4513 1744 4372 1744 
Q 4231 1744 4156 1631 
Q 4053 1478 4053 1031 
z
" transform="scale(0.015625)"/>
       <path id="Arial-BoldMT-29" d="M 216 -1347 
Q 475 -791 581 -494 
Q 688 -197 778 190 
Q 869 578 912 926 
Q 956 1275 956 1641 
Q 956 2384 797 3048 
Q 638 3713 209 4659 
L 806 4659 
Q 1278 3988 1539 3234 
Q 1800 2481 1800 1706 
Q 1800 1053 1594 306 
Q 1359 -531 822 -1347 
L 216 -1347 
z
" transform="scale(0.015625)"/>
      </defs>
      <use xlink:href="#Arial-BoldMT-54"/>
      <use xlink:href="#Arial-BoldMT-72" x="55.583984"/>
      <use xlink:href="#Arial-BoldMT-75" x="94.5"/>
      <use xlink:href="#Arial-BoldMT-65" x="155.583984"/>
      <use xlink:href="#Arial-BoldMT-20" x="211.199219"/>
      <use xlink:href="#Arial-BoldMT-50" x="238.982422"/>
      <use xlink:href="#Arial-BoldMT-6f" x="305.681641"/>
      <use xlink:href="#Arial-BoldMT-73" x="366.765625"/>
      <use xlink:href="#Arial-BoldMT-69" x="422.380859"/>
      <use xlink:href="#Arial-BoldMT-74" x="450.164062"/>
      <use xlink:href="#Arial-BoldMT-69" x="483.464844"/>
      <use xlink:href="#Arial-BoldMT-76" x="511.248047"/>
      <use xlink:href="#Arial-BoldMT-65" x="566.863281"/>
      <use xlink:href="#Arial-BoldMT-73" x="622.478516"/>
      <use xlink:href="#Arial-BoldMT-20" x="678.09375"/>
      <use xlink:href="#Arial-BoldMT-52" x="705.876953"/>
      <use xlink:href="#Arial-BoldMT-65" x="778.09375"/>
      <use xlink:href="#Arial-BoldMT-63" x="833.708984"/>
      <use xlink:href="#Arial-BoldMT-61" x="889.324219"/>
      <use xlink:href="#Arial-BoldMT-6c" x="944.939453"/>
      <use xlink:href="#Arial-BoldMT-6c" x="972.722656"/>
      <use xlink:href="#Arial-BoldMT-65" x="1000.505859"/>
      <use xlink:href="#Arial-BoldMT-64" x="1056.121094"/>
      <use xlink:href="#Arial-BoldMT-20" x="1117.205078"/>
      <use xlink:href="#Arial-BoldMT-28" x="1144.988281"/>
      <use xlink:href="#Arial-BoldMT-25" x="1178.289062"/>
      <use xlink:href="#Arial-BoldMT-29" x="1267.205078"/>
     </g>
    </g>
   </g>
   <g id="line2d_13">
    <path d="M 44.267188 182.639136 
L 44.45512 179.164466 
L 44.643053 179.164466 
L 44.830986 175.689795 
L 45.206852 175.689795 
L 45.394785 172.215125 
L 45.958584 172.215125 
L 46.146517 168.740454 
L 46.710315 168.740454 
L 46.898248 165.265784 
L 47.462047 165.265784 
L 47.64998 161.791113 
L 47.837913 161.791113 
L 48.589644 147.892431 
L 48.777577 147.892431 
L 49.153443 140.94309 
L 49.529309 140.94309 
L 50.093107 130.519079 
L 51.972436 130.519079 
L 52.536235 120.095067 
L 53.663833 120.095067 
L 53.851765 116.620397 
L 54.415564 116.620397 
L 54.79143 109.671055 
L 55.731094 109.671055 
L 55.919027 106.196385 
L 56.294893 106.196385 
L 56.482826 102.721714 
L 57.422491 102.721714 
L 57.610423 99.247044 
L 57.798356 99.247044 
L 57.986289 95.772373 
L 58.362155 95.772373 
L 58.550088 92.297703 
L 59.113887 92.297703 
L 59.30182 88.823032 
L 59.489752 88.823032 
L 59.677685 85.348362 
L 63.436343 85.348362 
L 63.624276 81.873691 
L 64.376008 81.873691 
L 64.751874 74.92435 
L 65.503605 74.92435 
L 65.691538 71.44968 
L 65.879471 71.44968 
L 66.067404 67.975009 
L 67.382934 67.975009 
L 67.7588 61.025668 
L 70.953659 61.025668 
L 71.141592 57.550998 
L 75.839915 57.550998 
L 76.027848 54.076327 
L 79.222707 54.076327 
L 79.41064 50.601657 
L 93.317675 50.601657 
L 93.505607 47.126986 
L 97.076333 47.126986 
L 97.264265 43.652316 
L 104.969514 43.652316 
L 105.157447 40.177645 
L 140.676765 40.177645 
L 140.864698 36.702975 
L 144.059558 36.702975 
L 144.247491 33.228304 
L 173.940889 33.228304 
L 174.128822 29.753634 
L 200.627361 29.753634 
L 200.627361 29.753634 
" clip-path="url(#p60bed04e64)" style="fill: none; stroke: #b40426; stroke-width: 1.5; stroke-linecap: square"/>
   </g>
   <g id="line2d_14">
    <path d="M 44.267188 186.113807 
L 44.624174 182.51932 
L 44.802668 182.51932 
L 45.159654 178.924833 
L 45.695134 178.924833 
L 45.873628 177.12759 
L 46.944588 177.12759 
L 47.123081 175.330347 
L 47.301574 175.330347 
L 47.658561 171.73586 
L 47.837054 171.73586 
L 50.157468 148.371696 
L 50.335961 148.371696 
L 51.585415 135.790992 
L 51.763908 135.790992 
L 52.120895 132.196506 
L 52.299388 132.196506 
L 52.834868 126.804776 
L 53.191855 126.804776 
L 53.727335 121.413046 
L 54.619802 121.413046 
L 54.798295 119.615802 
L 55.155282 119.615802 
L 55.333775 117.818559 
L 56.047748 117.818559 
L 56.226242 116.021315 
L 56.761722 116.021315 
L 57.297202 110.629585 
L 57.475695 110.629585 
L 58.011175 105.237855 
L 58.546655 105.237855 
L 58.725149 103.440612 
L 58.903642 103.440612 
L 59.260629 99.846125 
L 59.439122 99.846125 
L 59.796109 96.251638 
L 59.974602 96.251638 
L 60.331589 92.657152 
L 61.045562 92.657152 
L 61.224056 90.859908 
L 62.116522 90.859908 
L 62.473509 87.265421 
L 62.830496 87.265421 
L 63.008989 85.468178 
L 63.187482 85.468178 
L 63.365976 83.670935 
L 64.258443 83.670935 
L 64.436936 81.873691 
L 65.507896 81.873691 
L 65.686389 80.076448 
L 66.043376 80.076448 
L 66.400363 76.481961 
L 66.578856 76.481961 
L 66.935843 72.887475 
L 67.114336 72.887475 
L 67.292829 71.090231 
L 70.684203 71.090231 
L 70.862696 69.292988 
L 72.826123 69.292988 
L 73.18311 65.698501 
L 73.361603 65.698501 
L 73.540097 63.901258 
L 78.53791 63.901258 
L 78.716404 62.104014 
L 81.572297 62.104014 
L 81.750791 60.306771 
L 81.929284 60.306771 
L 82.107777 58.509528 
L 83.892711 58.509528 
L 84.071204 56.712284 
L 84.428191 56.712284 
L 84.606684 54.915041 
L 85.499151 54.915041 
L 85.677644 53.117797 
L 88.712031 53.117797 
L 88.890525 51.320554 
L 89.247511 51.320554 
L 89.426005 49.523311 
L 91.567925 49.523311 
L 91.746418 47.726067 
L 98.707659 47.726067 
L 98.886152 45.928824 
L 102.634512 45.928824 
L 102.813006 44.131581 
L 109.774246 44.131581 
L 109.95274 42.334337 
L 112.987127 42.334337 
L 113.16562 40.537094 
L 117.627954 40.537094 
L 117.806447 38.739851 
L 122.447274 38.739851 
L 122.625767 36.942607 
L 129.587008 36.942607 
L 129.765501 35.145364 
L 140.475102 35.145364 
L 140.653596 33.34812 
L 161.180331 33.34812 
L 161.358824 31.550877 
L 166.535131 31.550877 
L 166.713624 29.753634 
L 200.627361 29.753634 
L 200.627361 29.753634 
" clip-path="url(#p60bed04e64)" style="fill: none; stroke: #b40426; stroke-width: 1.5; stroke-linecap: square"/>
   </g>
   <g id="line2d_15">
    <path d="M 44.267188 184.810805 
L 45.047039 184.810805 
L 45.242002 183.507804 
L 46.021853 183.507804 
L 46.411778 180.901801 
L 46.606741 180.901801 
L 47.19163 176.992797 
L 48.946295 176.992797 
L 49.141258 175.689795 
L 49.531183 175.689795 
L 49.726146 174.386794 
L 51.285849 174.386794 
L 51.480811 173.083792 
L 51.870737 173.083792 
L 52.0657 171.780791 
L 52.260663 171.780791 
L 52.455625 170.47779 
L 52.650588 170.47779 
L 53.040514 167.871787 
L 53.235477 167.871787 
L 53.43044 166.568785 
L 53.625402 166.568785 
L 54.015328 163.962782 
L 54.795179 163.962782 
L 55.185105 161.356779 
L 56.159919 161.356779 
L 56.354882 160.053778 
L 56.744807 160.053778 
L 57.524659 154.841772 
L 57.719621 154.841772 
L 58.109547 152.235769 
L 58.30451 152.235769 
L 58.499473 150.932768 
L 59.279324 150.932768 
L 59.474287 149.629766 
L 59.669249 149.629766 
L 59.864212 148.326765 
L 60.644063 148.326765 
L 61.033989 145.720762 
L 61.423915 145.720762 
L 62.008803 141.811758 
L 63.763468 141.811758 
L 63.958431 140.508756 
L 64.348357 140.508756 
L 64.54332 139.205755 
L 65.518134 139.205755 
L 65.908059 136.599752 
L 66.103022 136.599752 
L 66.297985 135.296751 
L 66.687911 135.296751 
L 66.882873 133.993749 
L 67.077836 133.993749 
L 67.272799 132.690748 
L 68.05265 132.690748 
L 68.247613 131.387746 
L 69.027464 131.387746 
L 69.612353 127.478742 
L 71.172055 127.478742 
L 71.367018 126.17574 
L 72.536795 126.17574 
L 72.731758 124.872739 
L 73.121683 124.872739 
L 73.316646 123.569738 
L 74.486423 123.569738 
L 74.876349 120.963735 
L 75.461237 120.963735 
L 75.6562 119.660733 
L 76.046125 119.660733 
L 76.241088 118.357732 
L 76.825977 118.357732 
L 77.020939 117.05473 
L 77.410865 117.05473 
L 77.605828 115.751729 
L 77.995754 115.751729 
L 78.190716 114.448727 
L 78.580642 114.448727 
L 78.775605 113.145726 
L 79.360493 113.145726 
L 79.945382 109.236722 
L 81.700047 109.236722 
L 81.89501 107.93372 
L 82.284935 107.93372 
L 82.674861 105.327717 
L 82.869824 105.327717 
L 83.064787 104.024716 
L 84.039601 104.024716 
L 84.234563 102.721714 
L 84.624489 102.721714 
L 84.819452 101.418713 
L 85.599303 101.418713 
L 85.794266 100.115712 
L 86.379154 100.115712 
L 86.574117 98.81271 
L 89.303596 98.81271 
L 89.498559 97.509709 
L 89.888485 97.509709 
L 90.083448 96.206707 
L 91.838113 96.206707 
L 92.033076 94.903706 
L 92.423001 94.903706 
L 92.617964 93.600704 
L 94.567592 93.600704 
L 94.957518 90.994701 
L 95.152481 90.994701 
L 95.347444 89.6917 
L 95.737369 89.6917 
L 96.322258 85.782696 
L 96.907146 85.782696 
L 97.297072 83.176693 
L 99.2467 83.176693 
L 99.441663 81.873691 
L 100.416477 81.873691 
L 100.611439 80.57069 
L 101.001365 80.57069 
L 101.196328 79.267688 
L 105.290547 79.267688 
L 105.48551 77.964687 
L 105.680472 77.964687 
L 105.875435 76.661686 
L 106.655287 76.661686 
L 106.850249 75.358684 
L 107.045212 75.358684 
L 107.240175 74.055683 
L 108.214989 74.055683 
L 108.409952 72.752681 
L 109.579729 72.752681 
L 109.774691 71.44968 
L 110.944468 71.44968 
L 111.139431 70.146678 
L 111.72432 70.146678 
L 111.919282 68.843677 
L 112.309208 68.843677 
L 112.504171 67.540676 
L 113.478985 67.540676 
L 113.673948 66.237674 
L 121.667423 66.237674 
L 122.057348 63.631671 
L 123.032163 63.631671 
L 123.227125 62.32867 
L 124.201939 62.32867 
L 124.396902 61.025668 
L 125.176753 61.025668 
L 125.566679 58.419665 
L 125.761642 58.419665 
L 125.956605 57.116664 
L 127.126382 57.116664 
L 127.321344 55.813663 
L 127.906233 55.813663 
L 128.101196 54.510661 
L 128.491121 54.510661 
L 128.686084 53.20766 
L 129.465935 53.20766 
L 129.660898 51.904658 
L 131.220601 51.904658 
L 131.415563 50.601657 
L 131.805489 50.601657 
L 132.000452 49.298655 
L 133.560154 49.298655 
L 133.755117 47.995654 
L 135.119857 47.995654 
L 135.31482 46.692652 
L 135.509782 46.692652 
L 135.899708 44.08665 
L 137.264448 44.08665 
L 137.45941 42.783648 
L 139.214076 42.783648 
L 139.409039 41.480647 
L 148.962216 41.480647 
L 149.157179 40.177645 
L 150.326956 40.177645 
L 150.521919 38.874644 
L 154.226212 38.874644 
L 154.421175 37.571642 
L 155.395989 37.571642 
L 155.590952 36.268641 
L 156.565766 36.268641 
L 156.760729 34.965639 
L 158.905319 34.965639 
L 159.100282 33.662638 
L 159.295245 33.662638 
L 159.490208 32.359637 
L 161.04991 32.359637 
L 161.244873 31.056635 
L 164.169315 31.056635 
L 164.364278 29.753634 
L 200.627361 29.753634 
L 200.627361 29.753634 
" clip-path="url(#p60bed04e64)" style="fill: none; stroke: #eb7d62; stroke-width: 1.5; stroke-linecap: square"/>
   </g>
   <g id="line2d_16">
    <path d="M 44.267188 186.113807 
L 51.080267 186.113807 
L 51.250594 182.639136 
L 54.146153 182.639136 
L 54.486807 175.689795 
L 64.536099 175.689795 
L 64.706426 172.215125 
L 65.898715 172.215125 
L 66.069042 168.740454 
L 72.37114 168.740454 
L 72.541467 165.265784 
L 76.799642 165.265784 
L 76.969969 161.791113 
L 86.848934 161.791113 
L 87.019261 158.316443 
L 89.744493 158.316443 
L 89.91482 154.841772 
L 92.640052 154.841772 
L 92.810379 151.367102 
L 95.365283 151.367102 
L 95.53561 147.892431 
L 97.409207 147.892431 
L 97.579534 144.417761 
L 100.475093 144.417761 
L 100.64542 140.94309 
L 101.497055 140.94309 
L 101.667382 137.46842 
L 104.733268 137.46842 
L 104.903595 133.993749 
L 105.244248 133.993749 
L 105.414575 130.519079 
L 106.436537 130.519079 
L 106.606864 127.044408 
L 114.612233 127.044408 
L 114.78256 123.569738 
L 119.381388 123.569738 
L 119.551715 120.095067 
L 120.744004 120.095067 
L 120.914331 116.620397 
L 121.765966 116.620397 
L 121.936293 113.145726 
L 126.194468 113.145726 
L 126.364795 109.671055 
L 129.771334 109.671055 
L 129.941661 106.196385 
L 130.452642 106.196385 
L 130.622969 102.721714 
L 138.628338 102.721714 
L 138.798665 99.247044 
L 139.479973 99.247044 
L 139.6503 95.772373 
L 148.67763 95.772373 
L 148.847957 92.297703 
L 149.699592 92.297703 
L 149.869919 88.823032 
L 152.935805 88.823032 
L 153.106132 85.348362 
L 154.639074 85.348362 
L 154.809401 81.873691 
L 158.556595 81.873691 
L 158.897249 74.92435 
L 163.666405 74.92435 
L 163.836732 71.44968 
L 166.391636 71.44968 
L 166.561963 67.975009 
L 167.413598 67.975009 
L 167.583925 64.500339 
L 170.820138 64.500339 
L 170.990465 61.025668 
L 174.907986 61.025668 
L 175.078313 57.550998 
L 190.748395 57.550998 
L 190.918722 54.076327 
L 192.451665 54.076327 
L 192.621992 50.601657 
L 193.3033 50.601657 
L 193.473627 47.126986 
L 194.154935 47.126986 
L 194.325262 43.652316 
L 194.495589 43.652316 
L 194.665916 40.177645 
L 194.836243 40.177645 
L 195.00657 36.702975 
L 195.858205 36.702975 
L 196.028532 33.228304 
L 196.369186 33.228304 
L 196.539513 29.753634 
L 200.627361 29.753634 
L 200.627361 29.753634 
" clip-path="url(#p60bed04e64)" style="fill: none; stroke: #90b2fe; stroke-width: 1.5; stroke-linecap: square"/>
   </g>
   <g id="line2d_17">
    <path d="M 44.267188 186.113807 
L 74.986278 186.113807 
L 75.139874 183.370646 
L 81.898074 183.370646 
L 82.051669 180.627485 
L 83.741219 180.627485 
L 83.894815 177.884324 
L 89.424251 177.884324 
L 89.577847 175.141163 
L 90.499419 175.141163 
L 90.653015 172.398002 
L 92.035374 172.398002 
L 92.188969 169.654841 
L 94.032115 169.654841 
L 94.18571 166.91168 
L 98.332788 166.91168 
L 98.486383 164.168519 
L 100.636719 164.168519 
L 100.790315 161.425358 
L 102.326269 161.425358 
L 102.479865 158.682197 
L 103.094247 158.682197 
L 103.247842 155.939037 
L 105.551774 155.939037 
L 105.705369 153.195876 
L 105.858965 153.195876 
L 106.01256 150.452715 
L 106.319751 150.452715 
L 106.473347 147.709554 
L 111.388401 147.709554 
L 111.541997 144.966393 
L 111.695592 144.966393 
L 111.849188 142.223232 
L 113.845929 142.223232 
L 113.999524 139.480071 
L 120.604129 139.480071 
L 120.757724 136.73691 
L 121.064915 136.73691 
L 121.21851 133.993749 
L 122.90806 133.993749 
L 123.061656 131.250588 
L 124.751206 131.250588 
L 124.904801 128.507427 
L 125.211992 128.507427 
L 125.365588 125.764266 
L 129.051879 125.764266 
L 129.205474 123.021105 
L 132.277383 123.021105 
L 132.430979 120.277944 
L 135.349292 120.277944 
L 135.502888 117.534784 
L 135.656483 117.534784 
L 135.810079 114.791623 
L 139.035583 114.791623 
L 139.189179 112.048462 
L 140.264347 112.048462 
L 140.417942 109.305301 
L 141.18592 109.305301 
L 141.339515 106.56214 
L 149.480074 106.56214 
L 149.63367 103.818979 
L 150.401647 103.818979 
L 150.708838 98.332657 
L 164.993215 98.332657 
L 165.146811 95.589496 
L 166.836361 95.589496 
L 166.989956 92.846335 
L 169.140292 92.846335 
L 169.293888 90.103174 
L 180.813547 90.103174 
L 180.967142 87.360013 
L 181.274333 87.360013 
L 181.581524 81.873691 
L 184.960624 81.873691 
L 185.11422 79.13053 
L 185.575006 79.13053 
L 185.728602 76.38737 
L 186.035792 76.38737 
L 186.189388 73.644209 
L 186.80377 73.644209 
L 186.957365 70.901048 
L 188.186129 70.901048 
L 188.49332 65.414726 
L 188.646915 65.414726 
L 188.954106 59.928404 
L 189.107702 59.928404 
L 189.414892 54.442082 
L 189.568488 54.442082 
L 189.875679 48.95576 
L 190.336465 48.95576 
L 190.490061 46.212599 
L 191.565229 46.212599 
L 191.718824 43.469438 
L 194.176352 43.469438 
L 194.483542 37.983116 
L 196.019497 37.983116 
L 196.173092 35.239956 
L 196.326688 35.239956 
L 196.480283 32.496795 
L 199.552192 32.496795 
L 199.705788 29.753634 
L 200.627361 29.753634 
L 200.627361 29.753634 
" clip-path="url(#p60bed04e64)" style="fill: none; stroke: #4f69d9; stroke-width: 1.5; stroke-linecap: square"/>
   </g>
   <g id="line2d_18">
    <path d="M 44.267188 186.113807 
L 61.64054 168.740454 
L 79.013893 151.367102 
L 96.387245 133.993749 
L 113.760598 116.620397 
L 131.13395 99.247044 
L 148.507303 81.873691 
L 165.880656 64.500339 
L 183.254008 47.126986 
L 200.627361 29.753634 
" clip-path="url(#p60bed04e64)" style="fill: none; stroke-dasharray: 2.96,1.28; stroke-dashoffset: 0; stroke: #000000; stroke-width: 0.8"/>
   </g>
   <g id="patch_3">
    <path d="M 44.267188 186.113807 
L 44.267188 21.935625 
" style="fill: none; stroke: #000000; stroke-width: 0.8; stroke-linejoin: miter; stroke-linecap: square"/>
   </g>
   <g id="patch_4">
    <path d="M 208.445369 186.113807 
L 208.445369 21.935625 
" style="fill: none; stroke: #000000; stroke-width: 0.8; stroke-linejoin: miter; stroke-linecap: square"/>
   </g>
   <g id="patch_5">
    <path d="M 44.267188 186.113807 
L 208.445369 186.113807 
" style="fill: none; stroke: #000000; stroke-width: 0.8; stroke-linejoin: miter; stroke-linecap: square"/>
   </g>
   <g id="patch_6">
    <path d="M 44.267188 21.935625 
L 208.445369 21.935625 
" style="fill: none; stroke: #000000; stroke-width: 0.8; stroke-linejoin: miter; stroke-linecap: square"/>
   </g>
   <g id="text_15">
    <!-- SISSO Recall -->
    <g transform="translate(88.672528 15.935625) scale(0.12 -0.12)">
     <defs>
      <path id="Arial-BoldMT-53" d="M 231 1491 
L 1131 1578 
Q 1213 1125 1461 912 
Q 1709 700 2131 700 
Q 2578 700 2804 889 
Q 3031 1078 3031 1331 
Q 3031 1494 2936 1608 
Q 2841 1722 2603 1806 
Q 2441 1863 1863 2006 
Q 1119 2191 819 2459 
Q 397 2838 397 3381 
Q 397 3731 595 4036 
Q 794 4341 1167 4500 
Q 1541 4659 2069 4659 
Q 2931 4659 3367 4281 
Q 3803 3903 3825 3272 
L 2900 3231 
Q 2841 3584 2645 3739 
Q 2450 3894 2059 3894 
Q 1656 3894 1428 3728 
Q 1281 3622 1281 3444 
Q 1281 3281 1419 3166 
Q 1594 3019 2269 2859 
Q 2944 2700 3267 2529 
Q 3591 2359 3773 2064 
Q 3956 1769 3956 1334 
Q 3956 941 3737 597 
Q 3519 253 3119 86 
Q 2719 -81 2122 -81 
Q 1253 -81 787 320 
Q 322 722 231 1491 
z
" transform="scale(0.015625)"/>
      <path id="Arial-BoldMT-49" d="M 438 0 
L 438 4581 
L 1363 4581 
L 1363 0 
L 438 0 
z
" transform="scale(0.015625)"/>
      <path id="Arial-BoldMT-4f" d="M 278 2263 
Q 278 2963 488 3438 
Q 644 3788 914 4066 
Q 1184 4344 1506 4478 
Q 1934 4659 2494 4659 
Q 3506 4659 4114 4031 
Q 4722 3403 4722 2284 
Q 4722 1175 4119 548 
Q 3516 -78 2506 -78 
Q 1484 -78 881 545 
Q 278 1169 278 2263 
z
M 1231 2294 
Q 1231 1516 1590 1114 
Q 1950 713 2503 713 
Q 3056 713 3411 1111 
Q 3766 1509 3766 2306 
Q 3766 3094 3420 3481 
Q 3075 3869 2503 3869 
Q 1931 3869 1581 3476 
Q 1231 3084 1231 2294 
z
" transform="scale(0.015625)"/>
     </defs>
     <use xlink:href="#Arial-BoldMT-53"/>
     <use xlink:href="#Arial-BoldMT-49" x="66.699219"/>
     <use xlink:href="#Arial-BoldMT-53" x="94.482422"/>
     <use xlink:href="#Arial-BoldMT-53" x="161.181641"/>
     <use xlink:href="#Arial-BoldMT-4f" x="227.880859"/>
     <use xlink:href="#Arial-BoldMT-20" x="305.664062"/>
     <use xlink:href="#Arial-BoldMT-52" x="333.447266"/>
     <use xlink:href="#Arial-BoldMT-65" x="405.664062"/>
     <use xlink:href="#Arial-BoldMT-63" x="461.279297"/>
     <use xlink:href="#Arial-BoldMT-61" x="516.894531"/>
     <use xlink:href="#Arial-BoldMT-6c" x="572.509766"/>
     <use xlink:href="#Arial-BoldMT-6c" x="600.292969"/>
    </g>
   </g>
   <g id="legend_1">
    <g id="line2d_19">
     <path d="M 152.494152 115.045057 
L 162.494152 115.045057 
L 172.494152 115.045057 
" style="fill: none; stroke: #b40426; stroke-width: 1.5; stroke-linecap: square"/>
    </g>
    <g id="text_16">
     <!-- AEI -->
     <g transform="translate(180.494152 118.545057) scale(0.1 -0.1)">
      <defs>
       <path id="ArialMT-41" d="M -9 0 
L 1750 4581 
L 2403 4581 
L 4278 0 
L 3588 0 
L 3053 1388 
L 1138 1388 
L 634 0 
L -9 0 
z
M 1313 1881 
L 2866 1881 
L 2388 3150 
Q 2169 3728 2063 4100 
Q 1975 3659 1816 3225 
L 1313 1881 
z
" transform="scale(0.015625)"/>
       <path id="ArialMT-45" d="M 506 0 
L 506 4581 
L 3819 4581 
L 3819 4041 
L 1113 4041 
L 1113 2638 
L 3647 2638 
L 3647 2100 
L 1113 2100 
L 1113 541 
L 3925 541 
L 3925 0 
L 506 0 
z
" transform="scale(0.015625)"/>
       <path id="ArialMT-49" d="M 597 0 
L 597 4581 
L 1203 4581 
L 1203 0 
L 597 0 
z
" transform="scale(0.015625)"/>
      </defs>
      <use xlink:href="#ArialMT-41"/>
      <use xlink:href="#ArialMT-45" x="66.699219"/>
      <use xlink:href="#ArialMT-49" x="133.398438"/>
     </g>
    </g>
    <g id="line2d_20">
     <path d="M 152.494152 129.190369 
L 162.494152 129.190369 
L 172.494152 129.190369 
" style="fill: none; stroke: #b40426; stroke-width: 1.5; stroke-linecap: square"/>
    </g>
    <g id="text_17">
     <!-- MFI -->
     <g transform="translate(180.494152 132.690369) scale(0.1 -0.1)">
      <defs>
       <path id="ArialMT-4d" d="M 475 0 
L 475 4581 
L 1388 4581 
L 2472 1338 
Q 2622 884 2691 659 
Q 2769 909 2934 1394 
L 4031 4581 
L 4847 4581 
L 4847 0 
L 4263 0 
L 4263 3834 
L 2931 0 
L 2384 0 
L 1059 3900 
L 1059 0 
L 475 0 
z
" transform="scale(0.015625)"/>
       <path id="ArialMT-46" d="M 525 0 
L 525 4581 
L 3616 4581 
L 3616 4041 
L 1131 4041 
L 1131 2622 
L 3281 2622 
L 3281 2081 
L 1131 2081 
L 1131 0 
L 525 0 
z
" transform="scale(0.015625)"/>
      </defs>
      <use xlink:href="#ArialMT-4d"/>
      <use xlink:href="#ArialMT-46" x="83.300781"/>
      <use xlink:href="#ArialMT-49" x="144.384766"/>
     </g>
    </g>
    <g id="line2d_21">
     <path d="M 152.494152 143.335682 
L 162.494152 143.335682 
L 172.494152 143.335682 
" style="fill: none; stroke: #eb7d62; stroke-width: 1.5; stroke-linecap: square"/>
    </g>
    <g id="text_18">
     <!-- CHA -->
     <g transform="translate(180.494152 146.835682) scale(0.1 -0.1)">
      <defs>
       <path id="ArialMT-43" d="M 3763 1606 
L 4369 1453 
Q 4178 706 3683 314 
Q 3188 -78 2472 -78 
Q 1731 -78 1267 223 
Q 803 525 561 1097 
Q 319 1669 319 2325 
Q 319 3041 592 3573 
Q 866 4106 1370 4382 
Q 1875 4659 2481 4659 
Q 3169 4659 3637 4309 
Q 4106 3959 4291 3325 
L 3694 3184 
Q 3534 3684 3231 3912 
Q 2928 4141 2469 4141 
Q 1941 4141 1586 3887 
Q 1231 3634 1087 3207 
Q 944 2781 944 2328 
Q 944 1744 1114 1308 
Q 1284 872 1643 656 
Q 2003 441 2422 441 
Q 2931 441 3284 734 
Q 3638 1028 3763 1606 
z
" transform="scale(0.015625)"/>
       <path id="ArialMT-48" d="M 513 0 
L 513 4581 
L 1119 4581 
L 1119 2700 
L 3500 2700 
L 3500 4581 
L 4106 4581 
L 4106 0 
L 3500 0 
L 3500 2159 
L 1119 2159 
L 1119 0 
L 513 0 
z
" transform="scale(0.015625)"/>
      </defs>
      <use xlink:href="#ArialMT-43"/>
      <use xlink:href="#ArialMT-48" x="72.216797"/>
      <use xlink:href="#ArialMT-41" x="144.433594"/>
     </g>
    </g>
    <g id="line2d_22">
     <path d="M 152.494152 157.480994 
L 162.494152 157.480994 
L 172.494152 157.480994 
" style="fill: none; stroke: #90b2fe; stroke-width: 1.5; stroke-linecap: square"/>
    </g>
    <g id="text_19">
     <!-- MTW -->
     <g transform="translate(180.494152 160.980994) scale(0.1 -0.1)">
      <defs>
       <path id="ArialMT-54" d="M 1659 0 
L 1659 4041 
L 150 4041 
L 150 4581 
L 3781 4581 
L 3781 4041 
L 2266 4041 
L 2266 0 
L 1659 0 
z
" transform="scale(0.015625)"/>
       <path id="ArialMT-57" d="M 1294 0 
L 78 4581 
L 700 4581 
L 1397 1578 
Q 1509 1106 1591 641 
Q 1766 1375 1797 1488 
L 2669 4581 
L 3400 4581 
L 4056 2263 
Q 4303 1400 4413 641 
Q 4500 1075 4641 1638 
L 5359 4581 
L 5969 4581 
L 4713 0 
L 4128 0 
L 3163 3491 
Q 3041 3928 3019 4028 
Q 2947 3713 2884 3491 
L 1913 0 
L 1294 0 
z
" transform="scale(0.015625)"/>
      </defs>
      <use xlink:href="#ArialMT-4d"/>
      <use xlink:href="#ArialMT-54" x="83.300781"/>
      <use xlink:href="#ArialMT-57" x="144.384766"/>
     </g>
    </g>
    <g id="line2d_23">
     <path d="M 152.494152 171.626307 
L 162.494152 171.626307 
L 172.494152 171.626307 
" style="fill: none; stroke: #4f69d9; stroke-width: 1.5; stroke-linecap: square"/>
    </g>
    <g id="text_20">
     <!-- MOR -->
     <g transform="translate(180.494152 175.126307) scale(0.1 -0.1)">
      <defs>
       <path id="ArialMT-4f" d="M 309 2231 
Q 309 3372 921 4017 
Q 1534 4663 2503 4663 
Q 3138 4663 3647 4359 
Q 4156 4056 4423 3514 
Q 4691 2972 4691 2284 
Q 4691 1588 4409 1038 
Q 4128 488 3612 205 
Q 3097 -78 2500 -78 
Q 1853 -78 1343 234 
Q 834 547 571 1087 
Q 309 1628 309 2231 
z
M 934 2222 
Q 934 1394 1379 917 
Q 1825 441 2497 441 
Q 3181 441 3623 922 
Q 4066 1403 4066 2288 
Q 4066 2847 3877 3264 
Q 3688 3681 3323 3911 
Q 2959 4141 2506 4141 
Q 1863 4141 1398 3698 
Q 934 3256 934 2222 
z
" transform="scale(0.015625)"/>
       <path id="ArialMT-52" d="M 503 0 
L 503 4581 
L 2534 4581 
Q 3147 4581 3465 4457 
Q 3784 4334 3975 4021 
Q 4166 3709 4166 3331 
Q 4166 2844 3850 2509 
Q 3534 2175 2875 2084 
Q 3116 1969 3241 1856 
Q 3506 1613 3744 1247 
L 4541 0 
L 3778 0 
L 3172 953 
Q 2906 1366 2734 1584 
Q 2563 1803 2427 1890 
Q 2291 1978 2150 2013 
Q 2047 2034 1813 2034 
L 1109 2034 
L 1109 0 
L 503 0 
z
M 1109 2559 
L 2413 2559 
Q 2828 2559 3062 2645 
Q 3297 2731 3419 2920 
Q 3541 3109 3541 3331 
Q 3541 3656 3305 3865 
Q 3069 4075 2559 4075 
L 1109 4075 
L 1109 2559 
z
" transform="scale(0.015625)"/>
      </defs>
      <use xlink:href="#ArialMT-4d"/>
      <use xlink:href="#ArialMT-4f" x="83.300781"/>
      <use xlink:href="#ArialMT-52" x="161.083984"/>
     </g>
    </g>
   </g>
  </g>
  <g id="axes_2">
   <g id="patch_7">
    <path d="M 240.468437 186.113807 
L 404.646619 186.113807 
L 404.646619 21.935625 
L 240.468437 21.935625 
z
" style="fill: #ffffff"/>
   </g>
   <g id="matplotlib.axis_3">
    <g id="xtick_7">
     <g id="line2d_24">
      <g>
       <use xlink:href="#m73817006da" x="240.468437" y="186.113807" style="stroke: #000000; stroke-width: 0.8"/>
      </g>
     </g>
     <g id="text_21">
      <!-- 100 -->
      <g transform="translate(232.127031 200.271619) scale(0.1 -0.1)">
       <use xlink:href="#ArialMT-31"/>
       <use xlink:href="#ArialMT-30" x="55.615234"/>
       <use xlink:href="#ArialMT-30" x="111.230469"/>
      </g>
     </g>
    </g>
    <g id="xtick_8">
     <g id="line2d_25">
      <g>
       <use xlink:href="#m73817006da" x="271.740472" y="186.113807" style="stroke: #000000; stroke-width: 0.8"/>
      </g>
     </g>
     <g id="text_22">
      <!-- 80 -->
      <g transform="translate(266.179535 200.271619) scale(0.1 -0.1)">
       <use xlink:href="#ArialMT-38"/>
       <use xlink:href="#ArialMT-30" x="55.615234"/>
      </g>
     </g>
    </g>
    <g id="xtick_9">
     <g id="line2d_26">
      <g>
       <use xlink:href="#m73817006da" x="303.012507" y="186.113807" style="stroke: #000000; stroke-width: 0.8"/>
      </g>
     </g>
     <g id="text_23">
      <!-- 60 -->
      <g transform="translate(297.451569 200.271619) scale(0.1 -0.1)">
       <use xlink:href="#ArialMT-36"/>
       <use xlink:href="#ArialMT-30" x="55.615234"/>
      </g>
     </g>
    </g>
    <g id="xtick_10">
     <g id="line2d_27">
      <g>
       <use xlink:href="#m73817006da" x="334.284541" y="186.113807" style="stroke: #000000; stroke-width: 0.8"/>
      </g>
     </g>
     <g id="text_24">
      <!-- 40 -->
      <g transform="translate(328.723604 200.271619) scale(0.1 -0.1)">
       <use xlink:href="#ArialMT-34"/>
       <use xlink:href="#ArialMT-30" x="55.615234"/>
      </g>
     </g>
    </g>
    <g id="xtick_11">
     <g id="line2d_28">
      <g>
       <use xlink:href="#m73817006da" x="365.556576" y="186.113807" style="stroke: #000000; stroke-width: 0.8"/>
      </g>
     </g>
     <g id="text_25">
      <!-- 20 -->
      <g transform="translate(359.995639 200.271619) scale(0.1 -0.1)">
       <use xlink:href="#ArialMT-32"/>
       <use xlink:href="#ArialMT-30" x="55.615234"/>
      </g>
     </g>
    </g>
    <g id="xtick_12">
     <g id="line2d_29">
      <g>
       <use xlink:href="#m73817006da" x="396.828611" y="186.113807" style="stroke: #000000; stroke-width: 0.8"/>
      </g>
     </g>
     <g id="text_26">
      <!-- 0 -->
      <g transform="translate(394.048142 200.271619) scale(0.1 -0.1)">
       <use xlink:href="#ArialMT-30"/>
      </g>
     </g>
    </g>
    <g id="text_27">
     <!-- Molecule Percentile -->
     <g transform="translate(275.876278 213.416932) scale(0.1 -0.1)">
      <use xlink:href="#Arial-BoldMT-4d"/>
      <use xlink:href="#Arial-BoldMT-6f" x="83.300781"/>
      <use xlink:href="#Arial-BoldMT-6c" x="144.384766"/>
      <use xlink:href="#Arial-BoldMT-65" x="172.167969"/>
      <use xlink:href="#Arial-BoldMT-63" x="227.783203"/>
      <use xlink:href="#Arial-BoldMT-75" x="283.398438"/>
      <use xlink:href="#Arial-BoldMT-6c" x="344.482422"/>
      <use xlink:href="#Arial-BoldMT-65" x="372.265625"/>
      <use xlink:href="#Arial-BoldMT-20" x="427.880859"/>
      <use xlink:href="#Arial-BoldMT-50" x="455.664062"/>
      <use xlink:href="#Arial-BoldMT-65" x="522.363281"/>
      <use xlink:href="#Arial-BoldMT-72" x="577.978516"/>
      <use xlink:href="#Arial-BoldMT-63" x="616.894531"/>
      <use xlink:href="#Arial-BoldMT-65" x="672.509766"/>
      <use xlink:href="#Arial-BoldMT-6e" x="728.125"/>
      <use xlink:href="#Arial-BoldMT-74" x="789.208984"/>
      <use xlink:href="#Arial-BoldMT-69" x="822.509766"/>
      <use xlink:href="#Arial-BoldMT-6c" x="850.292969"/>
      <use xlink:href="#Arial-BoldMT-65" x="878.076172"/>
     </g>
    </g>
   </g>
   <g id="matplotlib.axis_4">
    <g id="ytick_7">
     <g id="line2d_30">
      <g>
       <use xlink:href="#md0a21908ff" x="240.468437" y="186.113807" style="stroke: #000000; stroke-width: 0.8"/>
      </g>
     </g>
    </g>
    <g id="ytick_8">
     <g id="line2d_31">
      <g>
       <use xlink:href="#md0a21908ff" x="240.468437" y="154.841772" style="stroke: #000000; stroke-width: 0.8"/>
      </g>
     </g>
    </g>
    <g id="ytick_9">
     <g id="line2d_32">
      <g>
       <use xlink:href="#md0a21908ff" x="240.468437" y="123.569738" style="stroke: #000000; stroke-width: 0.8"/>
      </g>
     </g>
    </g>
    <g id="ytick_10">
     <g id="line2d_33">
      <g>
       <use xlink:href="#md0a21908ff" x="240.468437" y="92.297703" style="stroke: #000000; stroke-width: 0.8"/>
      </g>
     </g>
    </g>
    <g id="ytick_11">
     <g id="line2d_34">
      <g>
       <use xlink:href="#md0a21908ff" x="240.468437" y="61.025668" style="stroke: #000000; stroke-width: 0.8"/>
      </g>
     </g>
    </g>
    <g id="ytick_12">
     <g id="line2d_35">
      <g>
       <use xlink:href="#md0a21908ff" x="240.468437" y="29.753634" style="stroke: #000000; stroke-width: 0.8"/>
      </g>
     </g>
    </g>
   </g>
   <g id="line2d_36">
    <path d="M 240.468437 186.113807 
L 240.65637 182.639136 
L 241.032236 182.639136 
L 241.408102 175.689795 
L 241.596035 175.689795 
L 241.783968 172.215125 
L 242.535699 172.215125 
L 242.723632 168.740454 
L 243.287431 168.740454 
L 244.039163 154.841772 
L 244.602961 154.841772 
L 244.978827 147.892431 
L 245.16676 147.892431 
L 245.354693 144.417761 
L 245.918492 144.417761 
L 246.106425 140.94309 
L 246.48229 140.94309 
L 247.046089 130.519079 
L 247.234022 130.519079 
L 247.421955 127.044408 
L 247.609888 127.044408 
L 247.797821 123.569738 
L 249.67715 123.569738 
L 250.053015 116.620397 
L 250.616814 116.620397 
L 250.804747 113.145726 
L 250.99268 113.145726 
L 251.368546 106.196385 
L 253.247875 106.196385 
L 253.435808 102.721714 
L 254.563405 102.721714 
L 254.751338 99.247044 
L 255.315137 99.247044 
L 255.50307 95.772373 
L 260.201392 95.772373 
L 260.389325 92.297703 
L 261.704855 92.297703 
L 261.892788 88.823032 
L 264.523849 88.823032 
L 264.711782 85.348362 
L 265.839379 85.348362 
L 266.027312 81.873691 
L 272.792896 81.873691 
L 272.980829 78.399021 
L 275.799823 78.399021 
L 275.987756 74.92435 
L 281.43781 74.92435 
L 281.625743 71.44968 
L 282.565407 71.44968 
L 282.75334 67.975009 
L 283.505072 67.975009 
L 283.693005 64.500339 
L 284.06887 64.500339 
L 284.256803 61.025668 
L 284.820602 61.025668 
L 285.008535 57.550998 
L 288.015461 57.550998 
L 288.203394 54.076327 
L 288.955126 54.076327 
L 289.143059 50.601657 
L 293.277583 50.601657 
L 293.465515 47.126986 
L 296.848308 47.126986 
L 297.036241 43.652316 
L 304.741489 43.652316 
L 304.929422 40.177645 
L 328.984834 40.177645 
L 329.172767 36.702975 
L 332.743492 36.702975 
L 332.931425 33.228304 
L 359.617896 33.228304 
L 359.805829 29.753634 
L 396.828611 29.753634 
L 396.828611 29.753634 
" clip-path="url(#p79e9e35d92)" style="fill: none; stroke: #b40426; stroke-width: 1.5; stroke-linecap: square"/>
   </g>
   <g id="line2d_37">
    <path d="M 240.468437 184.316563 
L 241.003918 178.924833 
L 242.431864 178.924833 
L 242.610358 177.12759 
L 242.788851 177.12759 
L 242.967344 175.330347 
L 244.216798 175.330347 
L 244.573785 171.73586 
L 244.752278 171.73586 
L 244.930771 169.938616 
L 245.644745 169.938616 
L 245.823238 168.141373 
L 246.001731 168.141373 
L 246.358718 164.546886 
L 247.429678 164.546886 
L 247.608171 162.749643 
L 247.965158 162.749643 
L 248.143651 160.9524 
L 248.322145 160.9524 
L 248.500638 159.155156 
L 248.679132 159.155156 
L 248.857625 157.357913 
L 250.107078 157.357913 
L 250.464065 153.763426 
L 250.642558 153.763426 
L 250.821052 151.966183 
L 251.535025 151.966183 
L 251.713518 150.168939 
L 252.427492 150.168939 
L 252.605985 148.371696 
L 252.784479 148.371696 
L 252.962972 146.574453 
L 253.141465 146.574453 
L 253.319959 144.777209 
L 254.390919 144.777209 
L 254.569412 142.979966 
L 255.997359 142.979966 
L 256.354346 139.385479 
L 258.853252 139.385479 
L 259.031746 137.588236 
L 259.388732 137.588236 
L 259.567226 135.790992 
L 261.887639 135.790992 
L 262.066133 133.993749 
L 262.601613 133.993749 
L 262.958599 130.399262 
L 263.137093 130.399262 
L 263.494079 126.804776 
L 263.672573 126.804776 
L 264.029559 123.210289 
L 264.208053 123.210289 
L 264.922026 116.021315 
L 265.10052 116.021315 
L 265.457506 112.426829 
L 265.992986 112.426829 
L 266.17148 110.629585 
L 266.70696 110.629585 
L 266.885453 108.832342 
L 267.420933 108.832342 
L 267.599426 107.035099 
L 267.77792 107.035099 
L 267.956413 105.237855 
L 268.3134 105.237855 
L 268.84888 99.846125 
L 269.205867 99.846125 
L 269.562853 96.251638 
L 269.91984 96.251638 
L 270.098333 94.454395 
L 270.276827 94.454395 
L 270.45532 92.657152 
L 270.633813 92.657152 
L 270.812307 90.859908 
L 271.704773 90.859908 
L 271.883267 89.062665 
L 272.240254 89.062665 
L 272.418747 87.265421 
L 272.59724 87.265421 
L 272.954227 83.670935 
L 273.6682 83.670935 
L 273.846694 81.873691 
L 275.631627 81.873691 
L 275.81012 80.076448 
L 276.524094 80.076448 
L 276.702587 78.279205 
L 276.881081 78.279205 
L 277.059574 76.481961 
L 280.093961 76.481961 
L 280.272454 74.684718 
L 281.343414 74.684718 
L 281.521908 72.887475 
L 282.235881 72.887475 
L 282.414374 71.090231 
L 283.842321 71.090231 
L 284.020814 69.292988 
L 284.199308 69.292988 
L 284.377801 67.495744 
L 284.556295 67.495744 
L 284.734788 65.698501 
L 290.268082 65.698501 
L 290.446575 63.901258 
L 297.764802 63.901258 
L 297.943296 62.104014 
L 305.261523 62.104014 
L 305.440016 60.306771 
L 309.36687 60.306771 
L 309.545363 58.509528 
L 309.90235 58.509528 
L 310.080843 56.712284 
L 313.11523 56.712284 
L 313.293724 54.915041 
L 319.897978 54.915041 
L 320.076471 53.117797 
L 322.218391 53.117797 
L 322.575378 49.523311 
L 329.358125 49.523311 
L 329.536618 47.726067 
L 331.143058 47.726067 
L 331.321552 45.928824 
L 338.818272 45.928824 
L 338.996766 44.131581 
L 342.745126 44.131581 
L 342.923619 42.334337 
L 343.102113 42.334337 
L 343.280606 40.537094 
L 350.598833 40.537094 
L 350.777327 38.739851 
L 359.701994 38.739851 
L 360.058981 35.145364 
L 366.663235 35.145364 
L 366.841728 33.34812 
L 369.876115 33.34812 
L 370.054608 31.550877 
L 373.981462 31.550877 
L 374.159955 29.753634 
L 396.828611 29.753634 
L 396.828611 29.753634 
" clip-path="url(#p79e9e35d92)" style="fill: none; stroke: #d95847; stroke-width: 1.5; stroke-linecap: square"/>
   </g>
   <g id="line2d_38">
    <path d="M 240.468437 186.113807 
L 241.053326 182.204802 
L 241.638214 182.204802 
L 241.833177 180.901801 
L 242.418066 180.901801 
L 242.613028 179.5988 
L 243.197917 179.5988 
L 243.782805 175.689795 
L 243.977768 175.689795 
L 244.172731 174.386794 
L 244.562656 174.386794 
L 244.757619 173.083792 
L 244.952582 173.083792 
L 245.147545 171.780791 
L 248.851838 171.780791 
L 249.046801 170.47779 
L 249.436727 170.47779 
L 249.63169 169.174788 
L 249.826652 169.174788 
L 250.021615 167.871787 
L 250.606504 167.871787 
L 250.996429 165.265784 
L 251.386355 165.265784 
L 251.581318 163.962782 
L 251.77628 163.962782 
L 252.166206 161.356779 
L 252.556132 161.356779 
L 252.946057 158.750777 
L 253.920871 158.750777 
L 254.115834 157.447775 
L 254.50576 157.447775 
L 254.700723 156.144774 
L 254.895685 156.144774 
L 255.090648 154.841772 
L 256.845313 154.841772 
L 257.040276 153.538771 
L 258.01509 153.538771 
L 258.210053 152.235769 
L 259.574793 152.235769 
L 259.769756 150.932768 
L 260.159681 150.932768 
L 260.354644 149.629766 
L 261.329458 149.629766 
L 261.524421 148.326765 
L 261.914347 148.326765 
L 262.109309 147.023764 
L 263.084123 147.023764 
L 263.474049 144.417761 
L 263.669012 144.417761 
L 263.863975 143.114759 
L 264.2539 143.114759 
L 264.643826 140.508756 
L 265.228714 140.508756 
L 265.423677 139.205755 
L 266.98338 139.205755 
L 267.373305 136.599752 
L 267.568268 136.599752 
L 267.763231 135.296751 
L 268.738045 135.296751 
L 268.933008 133.993749 
L 270.882636 133.993749 
L 271.077599 132.690748 
L 274.197004 132.690748 
L 274.391966 131.387746 
L 274.976855 131.387746 
L 275.171818 130.084745 
L 275.756706 130.084745 
L 275.951669 128.781743 
L 276.536557 128.781743 
L 276.73152 127.478742 
L 278.876111 127.478742 
L 279.071074 126.17574 
L 281.215665 126.17574 
L 281.410627 124.872739 
L 282.190479 124.872739 
L 282.385442 123.569738 
L 285.114921 123.569738 
L 285.309884 122.266736 
L 287.454475 122.266736 
L 287.649437 120.963735 
L 287.8444 120.963735 
L 288.039363 119.660733 
L 288.624251 119.660733 
L 288.819214 118.357732 
L 289.20914 118.357732 
L 289.794028 114.448727 
L 289.988991 114.448727 
L 290.183954 113.145726 
L 290.57388 113.145726 
L 291.158768 109.236722 
L 291.743656 109.236722 
L 292.133582 106.630719 
L 292.328545 106.630719 
L 292.523508 105.327717 
L 293.108396 105.327717 
L 293.303359 104.024716 
L 293.693284 104.024716 
L 294.08321 101.418713 
L 295.642913 101.418713 
L 296.032838 98.81271 
L 296.227801 98.81271 
L 296.422764 97.509709 
L 296.617727 97.509709 
L 296.812689 96.206707 
L 297.592541 96.206707 
L 297.787503 94.903706 
L 300.711946 94.903706 
L 300.906908 93.600704 
L 301.68676 93.600704 
L 301.881722 92.297703 
L 303.246462 92.297703 
L 303.441425 90.994701 
L 303.831351 90.994701 
L 304.026313 89.6917 
L 305.780979 89.6917 
L 305.975941 88.388699 
L 306.56083 88.388699 
L 306.755793 87.085697 
L 306.950756 87.085697 
L 307.145718 85.782696 
L 310.655049 85.782696 
L 310.850012 84.479694 
L 311.824826 84.479694 
L 312.019789 83.176693 
L 312.994603 83.176693 
L 313.189565 81.873691 
L 313.774454 81.873691 
L 313.969417 80.57069 
L 315.334156 80.57069 
L 315.529119 79.267688 
L 316.698896 79.267688 
L 316.893859 77.964687 
L 317.088822 77.964687 
L 317.67371 74.055683 
L 320.208227 74.055683 
L 320.403189 72.752681 
L 320.598152 72.752681 
L 320.988078 70.146678 
L 321.767929 70.146678 
L 321.962892 68.843677 
L 322.352817 68.843677 
L 322.54778 67.540676 
L 323.132669 67.540676 
L 323.327632 66.237674 
L 324.107483 66.237674 
L 324.497408 63.631671 
L 325.27726 63.631671 
L 325.472222 62.32867 
L 326.641999 62.32867 
L 327.031925 59.722667 
L 327.811776 59.722667 
L 328.006739 58.419665 
L 328.201702 58.419665 
L 328.396665 57.116664 
L 329.371479 57.116664 
L 329.566441 55.813663 
L 334.440512 55.813663 
L 334.635474 54.510661 
L 337.949842 54.510661 
L 338.144805 53.20766 
L 338.534731 53.20766 
L 338.729693 51.904658 
L 338.924656 51.904658 
L 339.119619 50.601657 
L 340.094433 50.601657 
L 340.289396 49.298655 
L 342.044061 49.298655 
L 342.433987 46.692652 
L 343.408801 46.692652 
L 343.603764 45.389651 
L 346.918131 45.389651 
L 347.308057 42.783648 
L 347.697983 42.783648 
L 347.892945 41.480647 
L 349.842574 41.480647 
L 350.037536 40.177645 
L 352.961979 40.177645 
L 353.156941 38.874644 
L 354.911607 38.874644 
L 355.106569 37.571642 
L 355.886421 37.571642 
L 356.081383 36.268641 
L 361.540342 36.268641 
L 361.735305 34.965639 
L 363.48997 34.965639 
L 363.684933 33.662638 
L 364.074859 33.662638 
L 364.269821 32.359637 
L 364.659747 32.359637 
L 364.85471 31.056635 
L 372.848185 31.056635 
L 373.043148 29.753634 
L 396.828611 29.753634 
L 396.828611 29.753634 
" clip-path="url(#p79e9e35d92)" style="fill: none; stroke: #f7ad90; stroke-width: 1.5; stroke-linecap: square"/>
   </g>
   <g id="line2d_39">
    <path d="M 240.468437 186.113807 
L 241.490399 186.113807 
L 241.660726 182.639136 
L 245.578247 182.639136 
L 245.748574 179.164466 
L 250.177076 179.164466 
L 250.347403 175.689795 
L 252.561654 175.689795 
L 252.73198 172.215125 
L 253.242961 172.215125 
L 253.413288 168.740454 
L 259.034079 168.740454 
L 259.204406 165.265784 
L 259.374733 165.265784 
L 259.54506 161.791113 
L 260.907676 161.791113 
L 261.078003 158.316443 
L 262.440619 158.316443 
L 262.610946 154.841772 
L 265.336177 154.841772 
L 265.506504 151.367102 
L 267.380101 151.367102 
L 267.550428 147.892431 
L 267.891082 147.892431 
L 268.061409 144.417761 
L 268.57239 144.417761 
L 268.742717 140.94309 
L 271.808603 140.94309 
L 271.97893 137.46842 
L 275.726124 137.46842 
L 275.896451 133.993749 
L 278.110701 133.993749 
L 278.281028 130.519079 
L 281.176587 130.519079 
L 281.346914 127.044408 
L 289.863263 127.044408 
L 290.03359 123.569738 
L 291.225879 123.569738 
L 291.396206 120.095067 
L 293.951111 120.095067 
L 294.121438 116.620397 
L 295.484054 116.620397 
L 295.654381 113.145726 
L 301.445498 113.145726 
L 301.615825 109.671055 
L 302.637787 109.671055 
L 302.808114 106.196385 
L 303.148768 106.196385 
L 303.489422 99.247044 
L 312.857407 99.247044 
L 313.027734 95.772373 
L 327.675854 95.772373 
L 327.846181 92.297703 
L 332.785664 92.297703 
L 332.955991 88.823032 
L 342.323975 88.823032 
L 342.494302 85.348362 
L 346.58215 85.348362 
L 346.752477 81.873691 
L 360.208309 81.873691 
L 360.378636 78.399021 
L 361.230271 78.399021 
L 361.400598 74.92435 
L 367.021388 74.92435 
L 367.191715 71.44968 
L 373.834468 71.44968 
L 374.004795 67.975009 
L 377.241007 67.975009 
L 377.411334 64.500339 
L 379.795912 64.500339 
L 379.966239 61.025668 
L 385.58703 61.025668 
L 385.757357 57.550998 
L 387.119972 57.550998 
L 387.460626 50.601657 
L 390.696839 50.601657 
L 390.867166 47.126986 
L 391.037493 47.126986 
L 391.20782 43.652316 
L 393.762725 43.652316 
L 393.933052 40.177645 
L 394.273706 40.177645 
L 394.444033 36.702975 
L 394.61436 36.702975 
L 394.784687 33.228304 
L 395.465995 33.228304 
L 395.636322 29.753634 
L 396.828611 29.753634 
L 396.828611 29.753634 
" clip-path="url(#p79e9e35d92)" style="fill: none; stroke: #bcd2f7; stroke-width: 1.5; stroke-linecap: square"/>
   </g>
   <g id="line2d_40">
    <path d="M 240.468437 186.113807 
L 243.847538 186.113807 
L 244.001133 183.370646 
L 244.461919 183.370646 
L 244.615515 180.627485 
L 245.383492 180.627485 
L 245.537088 177.884324 
L 247.533828 177.884324 
L 247.687424 175.141163 
L 248.301806 175.141163 
L 248.608997 169.654841 
L 250.759333 169.654841 
L 250.912928 166.91168 
L 251.220119 166.91168 
L 251.373715 164.168519 
L 251.680906 164.168519 
L 251.834501 161.425358 
L 252.909669 161.425358 
L 253.063265 158.682197 
L 253.984838 158.682197 
L 254.138433 155.939037 
L 254.90641 155.939037 
L 255.060006 153.195876 
L 256.442365 153.195876 
L 256.59596 150.452715 
L 262.278992 150.452715 
L 262.586183 144.966393 
L 263.35416 144.966393 
L 263.507756 142.223232 
L 263.661351 142.223232 
L 263.814947 139.480071 
L 266.272474 139.480071 
L 266.426069 136.73691 
L 269.805169 136.73691 
L 269.958765 133.993749 
L 271.494719 133.993749 
L 271.648315 131.250588 
L 282.707188 131.250588 
L 283.014379 125.764266 
L 292.07651 125.764266 
L 292.230106 123.021105 
L 293.151679 123.021105 
L 293.305274 120.277944 
L 294.687633 120.277944 
L 294.994824 114.791623 
L 298.220329 114.791623 
L 298.373924 112.048462 
L 301.138642 112.048462 
L 301.292238 109.305301 
L 303.596169 109.305301 
L 303.749765 106.56214 
L 308.66482 106.56214 
L 308.818415 103.818979 
L 324.945938 103.818979 
L 325.099533 101.075818 
L 326.942679 101.075818 
L 327.096274 98.332657 
L 332.62571 98.332657 
L 332.779306 95.589496 
L 337.847956 95.589496 
L 338.001551 92.846335 
L 339.230315 92.846335 
L 339.383911 90.103174 
L 340.76627 90.103174 
L 341.073461 84.616852 
L 341.995033 84.616852 
L 342.148629 81.873691 
L 344.298965 81.873691 
L 344.452561 79.13053 
L 345.988515 79.13053 
L 346.295706 73.644209 
L 347.217279 73.644209 
L 347.370874 70.901048 
L 351.978738 70.901048 
L 352.132333 68.157887 
L 354.28267 68.157887 
L 354.436265 65.414726 
L 358.736938 65.414726 
L 358.890533 62.671565 
L 362.269633 62.671565 
L 362.423229 59.928404 
L 362.884015 59.928404 
L 363.037611 57.185243 
L 363.498397 57.185243 
L 363.651992 54.442082 
L 373.789292 54.442082 
L 374.096483 48.95576 
L 378.550752 48.95576 
L 378.704347 46.212599 
L 381.776256 46.212599 
L 381.929852 43.469438 
L 382.083447 43.469438 
L 382.237042 40.726277 
L 383.619402 40.726277 
L 383.772997 37.983116 
L 388.380861 37.983116 
L 388.534456 35.239956 
L 394.217488 35.239956 
L 394.371083 32.496795 
L 396.060633 32.496795 
L 396.214229 29.753634 
L 396.828611 29.753634 
L 396.828611 29.753634 
" clip-path="url(#p79e9e35d92)" style="fill: none; stroke: #d1dae9; stroke-width: 1.5; stroke-linecap: square"/>
   </g>
   <g id="line2d_41">
    <path d="M 240.468437 186.113807 
L 257.84179 168.740454 
L 275.215143 151.367102 
L 292.588495 133.993749 
L 309.961848 116.620397 
L 327.3352 99.247044 
L 344.708553 81.873691 
L 362.081906 64.500339 
L 379.455258 47.126986 
L 396.828611 29.753634 
" clip-path="url(#p79e9e35d92)" style="fill: none; stroke-dasharray: 2.96,1.28; stroke-dashoffset: 0; stroke: #000000; stroke-width: 0.8"/>
   </g>
   <g id="patch_8">
    <path d="M 240.468437 186.113807 
L 240.468437 21.935625 
" style="fill: none; stroke: #000000; stroke-width: 0.8; stroke-linejoin: miter; stroke-linecap: square"/>
   </g>
   <g id="patch_9">
    <path d="M 404.646619 186.113807 
L 404.646619 21.935625 
" style="fill: none; stroke: #000000; stroke-width: 0.8; stroke-linejoin: miter; stroke-linecap: square"/>
   </g>
   <g id="patch_10">
    <path d="M 240.468437 186.113807 
L 404.646619 186.113807 
" style="fill: none; stroke: #000000; stroke-width: 0.8; stroke-linejoin: miter; stroke-linecap: square"/>
   </g>
   <g id="patch_11">
    <path d="M 240.468437 21.935625 
L 404.646619 21.935625 
" style="fill: none; stroke: #000000; stroke-width: 0.8; stroke-linejoin: miter; stroke-linecap: square"/>
   </g>
   <g id="text_28">
    <!-- dE_fS Recall -->
    <g transform="translate(286.210653 15.935625) scale(0.12 -0.12)">
     <defs>
      <path id="Arial-BoldMT-45" d="M 466 0 
L 466 4581 
L 3863 4581 
L 3863 3806 
L 1391 3806 
L 1391 2791 
L 3691 2791 
L 3691 2019 
L 1391 2019 
L 1391 772 
L 3950 772 
L 3950 0 
L 466 0 
z
" transform="scale(0.015625)"/>
      <path id="Arial-BoldMT-5f" d="M -59 -1266 
L -59 -697 
L 3591 -697 
L 3591 -1266 
L -59 -1266 
z
" transform="scale(0.015625)"/>
      <path id="Arial-BoldMT-66" d="M 75 3319 
L 563 3319 
L 563 3569 
Q 563 3988 652 4194 
Q 741 4400 980 4529 
Q 1219 4659 1584 4659 
Q 1959 4659 2319 4547 
L 2200 3934 
Q 1991 3984 1797 3984 
Q 1606 3984 1523 3895 
Q 1441 3806 1441 3553 
L 1441 3319 
L 2097 3319 
L 2097 2628 
L 1441 2628 
L 1441 0 
L 563 0 
L 563 2628 
L 75 2628 
L 75 3319 
z
" transform="scale(0.015625)"/>
     </defs>
     <use xlink:href="#Arial-BoldMT-64"/>
     <use xlink:href="#Arial-BoldMT-45" x="61.083984"/>
     <use xlink:href="#Arial-BoldMT-5f" x="127.783203"/>
     <use xlink:href="#Arial-BoldMT-66" x="183.398438"/>
     <use xlink:href="#Arial-BoldMT-53" x="216.699219"/>
     <use xlink:href="#Arial-BoldMT-20" x="283.398438"/>
     <use xlink:href="#Arial-BoldMT-52" x="311.181641"/>
     <use xlink:href="#Arial-BoldMT-65" x="383.398438"/>
     <use xlink:href="#Arial-BoldMT-63" x="439.013672"/>
     <use xlink:href="#Arial-BoldMT-61" x="494.628906"/>
     <use xlink:href="#Arial-BoldMT-6c" x="550.244141"/>
     <use xlink:href="#Arial-BoldMT-6c" x="578.027344"/>
    </g>
   </g>
   <g id="legend_2">
    <g id="line2d_42">
     <path d="M 348.695402 115.045057 
L 358.695402 115.045057 
L 368.695402 115.045057 
" style="fill: none; stroke: #b40426; stroke-width: 1.5; stroke-linecap: square"/>
    </g>
    <g id="text_29">
     <!-- AEI -->
     <g transform="translate(376.695402 118.545057) scale(0.1 -0.1)">
      <use xlink:href="#ArialMT-41"/>
      <use xlink:href="#ArialMT-45" x="66.699219"/>
      <use xlink:href="#ArialMT-49" x="133.398438"/>
     </g>
    </g>
    <g id="line2d_43">
     <path d="M 348.695402 129.190369 
L 358.695402 129.190369 
L 368.695402 129.190369 
" style="fill: none; stroke: #d95847; stroke-width: 1.5; stroke-linecap: square"/>
    </g>
    <g id="text_30">
     <!-- MFI -->
     <g transform="translate(376.695402 132.690369) scale(0.1 -0.1)">
      <use xlink:href="#ArialMT-4d"/>
      <use xlink:href="#ArialMT-46" x="83.300781"/>
      <use xlink:href="#ArialMT-49" x="144.384766"/>
     </g>
    </g>
    <g id="line2d_44">
     <path d="M 348.695402 143.335682 
L 358.695402 143.335682 
L 368.695402 143.335682 
" style="fill: none; stroke: #f7ad90; stroke-width: 1.5; stroke-linecap: square"/>
    </g>
    <g id="text_31">
     <!-- CHA -->
     <g transform="translate(376.695402 146.835682) scale(0.1 -0.1)">
      <use xlink:href="#ArialMT-43"/>
      <use xlink:href="#ArialMT-48" x="72.216797"/>
      <use xlink:href="#ArialMT-41" x="144.433594"/>
     </g>
    </g>
    <g id="line2d_45">
     <path d="M 348.695402 157.480994 
L 358.695402 157.480994 
L 368.695402 157.480994 
" style="fill: none; stroke: #bcd2f7; stroke-width: 1.5; stroke-linecap: square"/>
    </g>
    <g id="text_32">
     <!-- MTW -->
     <g transform="translate(376.695402 160.980994) scale(0.1 -0.1)">
      <use xlink:href="#ArialMT-4d"/>
      <use xlink:href="#ArialMT-54" x="83.300781"/>
      <use xlink:href="#ArialMT-57" x="144.384766"/>
     </g>
    </g>
    <g id="line2d_46">
     <path d="M 348.695402 171.626307 
L 358.695402 171.626307 
L 368.695402 171.626307 
" style="fill: none; stroke: #d1dae9; stroke-width: 1.5; stroke-linecap: square"/>
    </g>
    <g id="text_33">
     <!-- MOR -->
     <g transform="translate(376.695402 175.126307) scale(0.1 -0.1)">
      <use xlink:href="#ArialMT-4d"/>
      <use xlink:href="#ArialMT-4f" x="83.300781"/>
      <use xlink:href="#ArialMT-52" x="161.083984"/>
     </g>
    </g>
   </g>
  </g>
 </g>
 <defs>
  <clipPath id="p60bed04e64">
   <rect x="44.267188" y="21.935625" width="164.178182" height="164.178182"/>
  </clipPath>
  <clipPath id="p79e9e35d92">
   <rect x="240.468437" y="21.935625" width="164.178182" height="164.178182"/>
  </clipPath>
 </defs>
</svg>
