<?xml version="1.0" encoding="utf-8" standalone="no"?>
<!DOCTYPE svg PUBLIC "-//W3C//DTD SVG 1.1//EN"
  "http://www.w3.org/Graphics/SVG/1.1/DTD/svg11.dtd">
<svg xmlns:xlink="http://www.w3.org/1999/xlink" width="265pt" height="376.316563pt" viewBox="0 0 265 376.316563" xmlns="http://www.w3.org/2000/svg" version="1.1">
 <metadata>
  <rdf:RDF xmlns:dc="http://purl.org/dc/elements/1.1/" xmlns:cc="http://creativecommons.org/ns#" xmlns:rdf="http://www.w3.org/1999/02/22-rdf-syntax-ns#">
   <cc:Work>
    <dc:type rdf:resource="http://purl.org/dc/dcmitype/StillImage"/>
    <dc:date>2024-12-03T14:37:44.470689</dc:date>
    <dc:format>image/svg+xml</dc:format>
    <dc:creator>
     <cc:Agent>
      <dc:title>Matplotlib v3.9.2, https://matplotlib.org/</dc:title>
     </cc:Agent>
    </dc:creator>
   </cc:Work>
  </rdf:RDF>
 </metadata>
 <defs>
  <style type="text/css">*{stroke-linejoin: round; stroke-linecap: butt}</style>
 </defs>
 <g id="figure_1">
  <g id="patch_1">
   <path d="M 0 376.316563 
L 265 376.316563 
L 265 0 
L 0 0 
z
" style="fill: #ffffff"/>
  </g>
  <g id="axes_1">
   <g id="patch_2">
    <path d="M 90.4 339.84 
L 257.8 339.84 
L 257.8 7.2 
L 90.4 7.2 
z
" style="fill: #ffffff"/>
   </g>
   <g id="patch_3">
    <path d="M 90.4 9.576 
L 249.828571 9.576 
L 249.828571 28.584 
L 90.4 28.584 
z
" clip-path="url(#p0907997899)" style="fill: #3274a1"/>
   </g>
   <g id="patch_4">
    <path d="M 90.4 33.336 
L 233.654658 33.336 
L 233.654658 52.344 
L 90.4 52.344 
z
" clip-path="url(#p0907997899)" style="fill: #3274a1"/>
   </g>
   <g id="patch_5">
    <path d="M 90.4 57.096 
L 226.722981 57.096 
L 226.722981 76.104 
L 90.4 76.104 
z
" clip-path="url(#p0907997899)" style="fill: #3274a1"/>
   </g>
   <g id="patch_6">
    <path d="M 90.4 80.856 
L 175.890683 80.856 
L 175.890683 99.864 
L 90.4 99.864 
z
" clip-path="url(#p0907997899)" style="fill: #3274a1"/>
   </g>
   <g id="patch_7">
    <path d="M 90.4 104.616 
L 171.269565 104.616 
L 171.269565 123.624 
L 90.4 123.624 
z
" clip-path="url(#p0907997899)" style="fill: #3274a1"/>
   </g>
   <g id="patch_8">
    <path d="M 90.4 128.376 
L 164.337888 128.376 
L 164.337888 147.384 
L 90.4 147.384 
z
" clip-path="url(#p0907997899)" style="fill: #3274a1"/>
   </g>
   <g id="patch_9">
    <path d="M 90.4 152.136 
L 162.027329 152.136 
L 162.027329 171.144 
L 90.4 171.144 
z
" clip-path="url(#p0907997899)" style="fill: #3274a1"/>
   </g>
   <g id="patch_10">
    <path d="M 90.4 175.896 
L 145.853416 175.896 
L 145.853416 194.904 
L 90.4 194.904 
z
" clip-path="url(#p0907997899)" style="fill: #3274a1"/>
   </g>
   <g id="patch_11">
    <path d="M 90.4 199.656 
L 131.990062 199.656 
L 131.990062 218.664 
L 90.4 218.664 
z
" clip-path="url(#p0907997899)" style="fill: #3274a1"/>
   </g>
   <g id="patch_12">
    <path d="M 90.4 223.416 
L 127.368944 223.416 
L 127.368944 242.424 
L 90.4 242.424 
z
" clip-path="url(#p0907997899)" style="fill: #3274a1"/>
   </g>
   <g id="patch_13">
    <path d="M 90.4 247.176 
L 125.058385 247.176 
L 125.058385 266.184 
L 90.4 266.184 
z
" clip-path="url(#p0907997899)" style="fill: #3274a1"/>
   </g>
   <g id="patch_14">
    <path d="M 90.4 270.936 
L 122.747826 270.936 
L 122.747826 289.944 
L 90.4 289.944 
z
" clip-path="url(#p0907997899)" style="fill: #3274a1"/>
   </g>
   <g id="patch_15">
    <path d="M 90.4 294.696 
L 101.952795 294.696 
L 101.952795 313.704 
L 90.4 313.704 
z
" clip-path="url(#p0907997899)" style="fill: #3274a1"/>
   </g>
   <g id="patch_16">
    <path d="M 90.4 318.456 
L 95.021118 318.456 
L 95.021118 337.464 
L 90.4 337.464 
z
" clip-path="url(#p0907997899)" style="fill: #3274a1"/>
   </g>
   <g id="matplotlib.axis_1">
    <g id="xtick_1">
     <g id="line2d_1">
      <defs>
       <path id="m0540cb444f" d="M 0 0 
L 0 3.5 
" style="stroke: #000000; stroke-width: 0.8"/>
      </defs>
      <g>
       <use xlink:href="#m0540cb444f" x="90.4" y="339.84" style="stroke: #000000; stroke-width: 0.8"/>
      </g>
     </g>
     <g id="text_1">
      <!-- 0 -->
      <g transform="translate(87.619531 353.997813) scale(0.1 -0.1)">
       <defs>
        <path id="ArialMT-30" d="M 266 2259 
Q 266 3072 433 3567 
Q 600 4063 929 4331 
Q 1259 4600 1759 4600 
Q 2128 4600 2406 4451 
Q 2684 4303 2865 4023 
Q 3047 3744 3150 3342 
Q 3253 2941 3253 2259 
Q 3253 1453 3087 958 
Q 2922 463 2592 192 
Q 2263 -78 1759 -78 
Q 1097 -78 719 397 
Q 266 969 266 2259 
z
M 844 2259 
Q 844 1131 1108 757 
Q 1372 384 1759 384 
Q 2147 384 2411 759 
Q 2675 1134 2675 2259 
Q 2675 3391 2411 3762 
Q 2147 4134 1753 4134 
Q 1366 4134 1134 3806 
Q 844 3388 844 2259 
z
" transform="scale(0.015625)"/>
       </defs>
       <use xlink:href="#ArialMT-30"/>
      </g>
     </g>
    </g>
    <g id="xtick_2">
     <g id="line2d_2">
      <g>
       <use xlink:href="#m0540cb444f" x="136.61118" y="339.84" style="stroke: #000000; stroke-width: 0.8"/>
      </g>
     </g>
     <g id="text_2">
      <!-- 20 -->
      <g transform="translate(131.050243 353.997813) scale(0.1 -0.1)">
       <defs>
        <path id="ArialMT-32" d="M 3222 541 
L 3222 0 
L 194 0 
Q 188 203 259 391 
Q 375 700 629 1000 
Q 884 1300 1366 1694 
Q 2113 2306 2375 2664 
Q 2638 3022 2638 3341 
Q 2638 3675 2398 3904 
Q 2159 4134 1775 4134 
Q 1369 4134 1125 3890 
Q 881 3647 878 3216 
L 300 3275 
Q 359 3922 746 4261 
Q 1134 4600 1788 4600 
Q 2447 4600 2831 4234 
Q 3216 3869 3216 3328 
Q 3216 3053 3103 2787 
Q 2991 2522 2730 2228 
Q 2469 1934 1863 1422 
Q 1356 997 1212 845 
Q 1069 694 975 541 
L 3222 541 
z
" transform="scale(0.015625)"/>
       </defs>
       <use xlink:href="#ArialMT-32"/>
       <use xlink:href="#ArialMT-30" x="55.615234"/>
      </g>
     </g>
    </g>
    <g id="xtick_3">
     <g id="line2d_3">
      <g>
       <use xlink:href="#m0540cb444f" x="182.82236" y="339.84" style="stroke: #000000; stroke-width: 0.8"/>
      </g>
     </g>
     <g id="text_3">
      <!-- 40 -->
      <g transform="translate(177.261423 353.997813) scale(0.1 -0.1)">
       <defs>
        <path id="ArialMT-34" d="M 2069 0 
L 2069 1097 
L 81 1097 
L 81 1613 
L 2172 4581 
L 2631 4581 
L 2631 1613 
L 3250 1613 
L 3250 1097 
L 2631 1097 
L 2631 0 
L 2069 0 
z
M 2069 1613 
L 2069 3678 
L 634 1613 
L 2069 1613 
z
" transform="scale(0.015625)"/>
       </defs>
       <use xlink:href="#ArialMT-34"/>
       <use xlink:href="#ArialMT-30" x="55.615234"/>
      </g>
     </g>
    </g>
    <g id="xtick_4">
     <g id="line2d_4">
      <g>
       <use xlink:href="#m0540cb444f" x="229.03354" y="339.84" style="stroke: #000000; stroke-width: 0.8"/>
      </g>
     </g>
     <g id="text_4">
      <!-- 60 -->
      <g transform="translate(223.472603 353.997813) scale(0.1 -0.1)">
       <defs>
        <path id="ArialMT-36" d="M 3184 3459 
L 2625 3416 
Q 2550 3747 2413 3897 
Q 2184 4138 1850 4138 
Q 1581 4138 1378 3988 
Q 1113 3794 959 3422 
Q 806 3050 800 2363 
Q 1003 2672 1297 2822 
Q 1591 2972 1913 2972 
Q 2475 2972 2870 2558 
Q 3266 2144 3266 1488 
Q 3266 1056 3080 686 
Q 2894 316 2569 119 
Q 2244 -78 1831 -78 
Q 1128 -78 684 439 
Q 241 956 241 2144 
Q 241 3472 731 4075 
Q 1159 4600 1884 4600 
Q 2425 4600 2770 4297 
Q 3116 3994 3184 3459 
z
M 888 1484 
Q 888 1194 1011 928 
Q 1134 663 1356 523 
Q 1578 384 1822 384 
Q 2178 384 2434 671 
Q 2691 959 2691 1453 
Q 2691 1928 2437 2201 
Q 2184 2475 1800 2475 
Q 1419 2475 1153 2201 
Q 888 1928 888 1484 
z
" transform="scale(0.015625)"/>
       </defs>
       <use xlink:href="#ArialMT-36"/>
       <use xlink:href="#ArialMT-30" x="55.615234"/>
      </g>
     </g>
    </g>
    <g id="text_5">
     <!-- Count -->
     <g transform="translate(159.6625 367.143125) scale(0.1 -0.1)">
      <defs>
       <path id="Arial-BoldMT-43" d="M 3397 1684 
L 4294 1400 
Q 4088 650 3608 286 
Q 3128 -78 2391 -78 
Q 1478 -78 890 545 
Q 303 1169 303 2250 
Q 303 3394 893 4026 
Q 1484 4659 2447 4659 
Q 3288 4659 3813 4163 
Q 4125 3869 4281 3319 
L 3366 3100 
Q 3284 3456 3026 3662 
Q 2769 3869 2400 3869 
Q 1891 3869 1573 3503 
Q 1256 3138 1256 2319 
Q 1256 1450 1568 1081 
Q 1881 713 2381 713 
Q 2750 713 3015 947 
Q 3281 1181 3397 1684 
z
" transform="scale(0.015625)"/>
       <path id="Arial-BoldMT-6f" d="M 256 1706 
Q 256 2144 472 2553 
Q 688 2963 1083 3178 
Q 1478 3394 1966 3394 
Q 2719 3394 3200 2905 
Q 3681 2416 3681 1669 
Q 3681 916 3195 420 
Q 2709 -75 1972 -75 
Q 1516 -75 1102 131 
Q 688 338 472 736 
Q 256 1134 256 1706 
z
M 1156 1659 
Q 1156 1166 1390 903 
Q 1625 641 1969 641 
Q 2313 641 2545 903 
Q 2778 1166 2778 1666 
Q 2778 2153 2545 2415 
Q 2313 2678 1969 2678 
Q 1625 2678 1390 2415 
Q 1156 2153 1156 1659 
z
" transform="scale(0.015625)"/>
       <path id="Arial-BoldMT-75" d="M 2644 0 
L 2644 497 
Q 2463 231 2167 78 
Q 1872 -75 1544 -75 
Q 1209 -75 943 72 
Q 678 219 559 484 
Q 441 750 441 1219 
L 441 3319 
L 1319 3319 
L 1319 1794 
Q 1319 1094 1367 936 
Q 1416 778 1544 686 
Q 1672 594 1869 594 
Q 2094 594 2272 717 
Q 2450 841 2515 1023 
Q 2581 1206 2581 1919 
L 2581 3319 
L 3459 3319 
L 3459 0 
L 2644 0 
z
" transform="scale(0.015625)"/>
       <path id="Arial-BoldMT-6e" d="M 3478 0 
L 2600 0 
L 2600 1694 
Q 2600 2231 2544 2389 
Q 2488 2547 2361 2634 
Q 2234 2722 2056 2722 
Q 1828 2722 1647 2597 
Q 1466 2472 1398 2265 
Q 1331 2059 1331 1503 
L 1331 0 
L 453 0 
L 453 3319 
L 1269 3319 
L 1269 2831 
Q 1703 3394 2363 3394 
Q 2653 3394 2893 3289 
Q 3134 3184 3257 3021 
Q 3381 2859 3429 2653 
Q 3478 2447 3478 2063 
L 3478 0 
z
" transform="scale(0.015625)"/>
       <path id="Arial-BoldMT-74" d="M 1981 3319 
L 1981 2619 
L 1381 2619 
L 1381 1281 
Q 1381 875 1398 808 
Q 1416 741 1477 697 
Q 1538 653 1625 653 
Q 1747 653 1978 738 
L 2053 56 
Q 1747 -75 1359 -75 
Q 1122 -75 931 4 
Q 741 84 652 211 
Q 563 338 528 553 
Q 500 706 500 1172 
L 500 2619 
L 97 2619 
L 97 3319 
L 500 3319 
L 500 3978 
L 1381 4491 
L 1381 3319 
L 1981 3319 
z
" transform="scale(0.015625)"/>
      </defs>
      <use xlink:href="#Arial-BoldMT-43"/>
      <use xlink:href="#Arial-BoldMT-6f" x="72.216797"/>
      <use xlink:href="#Arial-BoldMT-75" x="133.300781"/>
      <use xlink:href="#Arial-BoldMT-6e" x="194.384766"/>
      <use xlink:href="#Arial-BoldMT-74" x="255.46875"/>
     </g>
    </g>
   </g>
   <g id="matplotlib.axis_2">
    <g id="ytick_1">
     <g id="line2d_5">
      <defs>
       <path id="m91bbd6611f" d="M 0 0 
L -3.5 0 
" style="stroke: #000000; stroke-width: 0.8"/>
      </defs>
      <g>
       <use xlink:href="#m91bbd6611f" x="90.4" y="19.08" style="stroke: #000000; stroke-width: 0.8"/>
      </g>
     </g>
     <g id="text_6">
      <!-- $\mathdefault{ln D}_{\mathdefault{OSDA,mol}}$ -->
      <g transform="translate(33.6 22.68) scale(0.1 -0.1)">
       <defs>
        <path id="ArialMT-6c" d="M 409 0 
L 409 4581 
L 972 4581 
L 972 0 
L 409 0 
z
" transform="scale(0.015625)"/>
        <path id="ArialMT-6e" d="M 422 0 
L 422 3319 
L 928 3319 
L 928 2847 
Q 1294 3394 1984 3394 
Q 2284 3394 2536 3286 
Q 2788 3178 2913 3003 
Q 3038 2828 3088 2588 
Q 3119 2431 3119 2041 
L 3119 0 
L 2556 0 
L 2556 2019 
Q 2556 2363 2490 2533 
Q 2425 2703 2258 2804 
Q 2091 2906 1866 2906 
Q 1506 2906 1245 2678 
Q 984 2450 984 1813 
L 984 0 
L 422 0 
z
" transform="scale(0.015625)"/>
        <path id="ArialMT-44" d="M 494 0 
L 494 4581 
L 2072 4581 
Q 2606 4581 2888 4516 
Q 3281 4425 3559 4188 
Q 3922 3881 4101 3404 
Q 4281 2928 4281 2316 
Q 4281 1794 4159 1391 
Q 4038 988 3847 723 
Q 3656 459 3429 307 
Q 3203 156 2883 78 
Q 2563 0 2147 0 
L 494 0 
z
M 1100 541 
L 2078 541 
Q 2531 541 2789 625 
Q 3047 709 3200 863 
Q 3416 1078 3536 1442 
Q 3656 1806 3656 2325 
Q 3656 3044 3420 3430 
Q 3184 3816 2847 3947 
Q 2603 4041 2063 4041 
L 1100 4041 
L 1100 541 
z
" transform="scale(0.015625)"/>
        <path id="ArialMT-4f" d="M 309 2231 
Q 309 3372 921 4017 
Q 1534 4663 2503 4663 
Q 3138 4663 3647 4359 
Q 4156 4056 4423 3514 
Q 4691 2972 4691 2284 
Q 4691 1588 4409 1038 
Q 4128 488 3612 205 
Q 3097 -78 2500 -78 
Q 1853 -78 1343 234 
Q 834 547 571 1087 
Q 309 1628 309 2231 
z
M 934 2222 
Q 934 1394 1379 917 
Q 1825 441 2497 441 
Q 3181 441 3623 922 
Q 4066 1403 4066 2288 
Q 4066 2847 3877 3264 
Q 3688 3681 3323 3911 
Q 2959 4141 2506 4141 
Q 1863 4141 1398 3698 
Q 934 3256 934 2222 
z
" transform="scale(0.015625)"/>
        <path id="ArialMT-53" d="M 288 1472 
L 859 1522 
Q 900 1178 1048 958 
Q 1197 738 1509 602 
Q 1822 466 2213 466 
Q 2559 466 2825 569 
Q 3091 672 3220 851 
Q 3350 1031 3350 1244 
Q 3350 1459 3225 1620 
Q 3100 1781 2813 1891 
Q 2628 1963 1997 2114 
Q 1366 2266 1113 2400 
Q 784 2572 623 2826 
Q 463 3081 463 3397 
Q 463 3744 659 4045 
Q 856 4347 1234 4503 
Q 1613 4659 2075 4659 
Q 2584 4659 2973 4495 
Q 3363 4331 3572 4012 
Q 3781 3694 3797 3291 
L 3216 3247 
Q 3169 3681 2898 3903 
Q 2628 4125 2100 4125 
Q 1550 4125 1298 3923 
Q 1047 3722 1047 3438 
Q 1047 3191 1225 3031 
Q 1400 2872 2139 2705 
Q 2878 2538 3153 2413 
Q 3553 2228 3743 1945 
Q 3934 1663 3934 1294 
Q 3934 928 3725 604 
Q 3516 281 3123 101 
Q 2731 -78 2241 -78 
Q 1619 -78 1198 103 
Q 778 284 539 648 
Q 300 1013 288 1472 
z
" transform="scale(0.015625)"/>
        <path id="ArialMT-41" d="M -9 0 
L 1750 4581 
L 2403 4581 
L 4278 0 
L 3588 0 
L 3053 1388 
L 1138 1388 
L 634 0 
L -9 0 
z
M 1313 1881 
L 2866 1881 
L 2388 3150 
Q 2169 3728 2063 4100 
Q 1975 3659 1816 3225 
L 1313 1881 
z
" transform="scale(0.015625)"/>
        <path id="ArialMT-2c" d="M 569 0 
L 569 641 
L 1209 641 
L 1209 0 
Q 1209 -353 1084 -570 
Q 959 -788 688 -906 
L 531 -666 
Q 709 -588 793 -436 
Q 878 -284 888 0 
L 569 0 
z
" transform="scale(0.015625)"/>
        <path id="ArialMT-6d" d="M 422 0 
L 422 3319 
L 925 3319 
L 925 2853 
Q 1081 3097 1340 3245 
Q 1600 3394 1931 3394 
Q 2300 3394 2536 3241 
Q 2772 3088 2869 2813 
Q 3263 3394 3894 3394 
Q 4388 3394 4653 3120 
Q 4919 2847 4919 2278 
L 4919 0 
L 4359 0 
L 4359 2091 
Q 4359 2428 4304 2576 
Q 4250 2725 4106 2815 
Q 3963 2906 3769 2906 
Q 3419 2906 3187 2673 
Q 2956 2441 2956 1928 
L 2956 0 
L 2394 0 
L 2394 2156 
Q 2394 2531 2256 2718 
Q 2119 2906 1806 2906 
Q 1569 2906 1367 2781 
Q 1166 2656 1075 2415 
Q 984 2175 984 1722 
L 984 0 
L 422 0 
z
" transform="scale(0.015625)"/>
        <path id="ArialMT-6f" d="M 213 1659 
Q 213 2581 725 3025 
Q 1153 3394 1769 3394 
Q 2453 3394 2887 2945 
Q 3322 2497 3322 1706 
Q 3322 1066 3130 698 
Q 2938 331 2570 128 
Q 2203 -75 1769 -75 
Q 1072 -75 642 372 
Q 213 819 213 1659 
z
M 791 1659 
Q 791 1022 1069 705 
Q 1347 388 1769 388 
Q 2188 388 2466 706 
Q 2744 1025 2744 1678 
Q 2744 2294 2464 2611 
Q 2184 2928 1769 2928 
Q 1347 2928 1069 2612 
Q 791 2297 791 1659 
z
" transform="scale(0.015625)"/>
       </defs>
       <use xlink:href="#ArialMT-6c" transform="translate(0 0.421875)"/>
       <use xlink:href="#ArialMT-6e" transform="translate(22.216797 0.421875)"/>
       <use xlink:href="#ArialMT-44" transform="translate(77.832031 0.421875)"/>
       <use xlink:href="#ArialMT-4f" transform="translate(151.005859 -15.984375) scale(0.7)"/>
       <use xlink:href="#ArialMT-53" transform="translate(205.454102 -15.984375) scale(0.7)"/>
       <use xlink:href="#ArialMT-44" transform="translate(252.143555 -15.984375) scale(0.7)"/>
       <use xlink:href="#ArialMT-41" transform="translate(302.695312 -15.984375) scale(0.7)"/>
       <use xlink:href="#ArialMT-2c" transform="translate(349.384766 -15.984375) scale(0.7)"/>
       <use xlink:href="#ArialMT-6d" transform="translate(382.470703 -15.984375) scale(0.7)"/>
       <use xlink:href="#ArialMT-6f" transform="translate(440.78125 -15.984375) scale(0.7)"/>
       <use xlink:href="#ArialMT-6c" transform="translate(479.711914 -15.984375) scale(0.7)"/>
      </g>
     </g>
    </g>
    <g id="ytick_2">
     <g id="line2d_6">
      <g>
       <use xlink:href="#m91bbd6611f" x="90.4" y="42.84" style="stroke: #000000; stroke-width: 0.8"/>
      </g>
     </g>
     <g id="text_7">
      <!-- $\mathdefault{\Delta E}_{\mathdefault{form,ij,OSDA,atom}}$ -->
      <g transform="translate(7.2 46.44) scale(0.1 -0.1)">
       <defs>
        <path id="ArialMT-394" d="M -6 0 
L 1753 4581 
L 2406 4581 
L 4281 0 
L -6 0 
z
M 834 541 
L 3381 541 
L 2391 3150 
Q 2169 3738 2066 4100 
Q 1981 3675 1819 3225 
L 834 541 
z
" transform="scale(0.015625)"/>
        <path id="ArialMT-45" d="M 506 0 
L 506 4581 
L 3819 4581 
L 3819 4041 
L 1113 4041 
L 1113 2638 
L 3647 2638 
L 3647 2100 
L 1113 2100 
L 1113 541 
L 3925 541 
L 3925 0 
L 506 0 
z
" transform="scale(0.015625)"/>
        <path id="ArialMT-66" d="M 556 0 
L 556 2881 
L 59 2881 
L 59 3319 
L 556 3319 
L 556 3672 
Q 556 4006 616 4169 
Q 697 4388 901 4523 
Q 1106 4659 1475 4659 
Q 1713 4659 2000 4603 
L 1916 4113 
Q 1741 4144 1584 4144 
Q 1328 4144 1222 4034 
Q 1116 3925 1116 3625 
L 1116 3319 
L 1763 3319 
L 1763 2881 
L 1116 2881 
L 1116 0 
L 556 0 
z
" transform="scale(0.015625)"/>
        <path id="ArialMT-72" d="M 416 0 
L 416 3319 
L 922 3319 
L 922 2816 
Q 1116 3169 1280 3281 
Q 1444 3394 1641 3394 
Q 1925 3394 2219 3213 
L 2025 2691 
Q 1819 2813 1613 2813 
Q 1428 2813 1281 2702 
Q 1134 2591 1072 2394 
Q 978 2094 978 1738 
L 978 0 
L 416 0 
z
" transform="scale(0.015625)"/>
        <path id="ArialMT-69" d="M 425 3934 
L 425 4581 
L 988 4581 
L 988 3934 
L 425 3934 
z
M 425 0 
L 425 3319 
L 988 3319 
L 988 0 
L 425 0 
z
" transform="scale(0.015625)"/>
        <path id="ArialMT-6a" d="M 419 3928 
L 419 4581 
L 981 4581 
L 981 3928 
L 419 3928 
z
M -294 -1288 
L -188 -809 
Q -19 -853 78 -853 
Q 250 -853 334 -739 
Q 419 -625 419 -169 
L 419 3319 
L 981 3319 
L 981 -181 
Q 981 -794 822 -1034 
Q 619 -1347 147 -1347 
Q -81 -1347 -294 -1288 
z
" transform="scale(0.015625)"/>
        <path id="ArialMT-61" d="M 2588 409 
Q 2275 144 1986 34 
Q 1697 -75 1366 -75 
Q 819 -75 525 192 
Q 231 459 231 875 
Q 231 1119 342 1320 
Q 453 1522 633 1644 
Q 813 1766 1038 1828 
Q 1203 1872 1538 1913 
Q 2219 1994 2541 2106 
Q 2544 2222 2544 2253 
Q 2544 2597 2384 2738 
Q 2169 2928 1744 2928 
Q 1347 2928 1158 2789 
Q 969 2650 878 2297 
L 328 2372 
Q 403 2725 575 2942 
Q 747 3159 1072 3276 
Q 1397 3394 1825 3394 
Q 2250 3394 2515 3294 
Q 2781 3194 2906 3042 
Q 3031 2891 3081 2659 
Q 3109 2516 3109 2141 
L 3109 1391 
Q 3109 606 3145 398 
Q 3181 191 3288 0 
L 2700 0 
Q 2613 175 2588 409 
z
M 2541 1666 
Q 2234 1541 1622 1453 
Q 1275 1403 1131 1340 
Q 988 1278 909 1158 
Q 831 1038 831 891 
Q 831 666 1001 516 
Q 1172 366 1500 366 
Q 1825 366 2078 508 
Q 2331 650 2450 897 
Q 2541 1088 2541 1459 
L 2541 1666 
z
" transform="scale(0.015625)"/>
        <path id="ArialMT-74" d="M 1650 503 
L 1731 6 
Q 1494 -44 1306 -44 
Q 1000 -44 831 53 
Q 663 150 594 308 
Q 525 466 525 972 
L 525 2881 
L 113 2881 
L 113 3319 
L 525 3319 
L 525 4141 
L 1084 4478 
L 1084 3319 
L 1650 3319 
L 1650 2881 
L 1084 2881 
L 1084 941 
Q 1084 700 1114 631 
Q 1144 563 1211 522 
Q 1278 481 1403 481 
Q 1497 481 1650 503 
z
" transform="scale(0.015625)"/>
       </defs>
       <use xlink:href="#ArialMT-394" transform="translate(0 0.421875)"/>
       <use xlink:href="#ArialMT-45" transform="translate(66.796875 0.421875)"/>
       <use xlink:href="#ArialMT-66" transform="translate(134.453125 -15.984375) scale(0.7)"/>
       <use xlink:href="#ArialMT-6f" transform="translate(153.901367 -15.984375) scale(0.7)"/>
       <use xlink:href="#ArialMT-72" transform="translate(192.832031 -15.984375) scale(0.7)"/>
       <use xlink:href="#ArialMT-6d" transform="translate(216.142578 -15.984375) scale(0.7)"/>
       <use xlink:href="#ArialMT-2c" transform="translate(274.453125 -15.984375) scale(0.7)"/>
       <use xlink:href="#ArialMT-69" transform="translate(307.539062 -15.984375) scale(0.7)"/>
       <use xlink:href="#ArialMT-6a" transform="translate(323.09082 -15.984375) scale(0.7)"/>
       <use xlink:href="#ArialMT-2c" transform="translate(338.642578 -15.984375) scale(0.7)"/>
       <use xlink:href="#ArialMT-4f" transform="translate(371.728516 -15.984375) scale(0.7)"/>
       <use xlink:href="#ArialMT-53" transform="translate(426.176758 -15.984375) scale(0.7)"/>
       <use xlink:href="#ArialMT-44" transform="translate(472.866211 -15.984375) scale(0.7)"/>
       <use xlink:href="#ArialMT-41" transform="translate(523.417969 -15.984375) scale(0.7)"/>
       <use xlink:href="#ArialMT-2c" transform="translate(570.107422 -15.984375) scale(0.7)"/>
       <use xlink:href="#ArialMT-61" transform="translate(603.193359 -15.984375) scale(0.7)"/>
       <use xlink:href="#ArialMT-74" transform="translate(642.124023 -15.984375) scale(0.7)"/>
       <use xlink:href="#ArialMT-6f" transform="translate(661.572266 -15.984375) scale(0.7)"/>
       <use xlink:href="#ArialMT-6d" transform="translate(700.50293 -15.984375) scale(0.7)"/>
      </g>
     </g>
    </g>
    <g id="ytick_3">
     <g id="line2d_7">
      <g>
       <use xlink:href="#m91bbd6611f" x="90.4" y="66.6" style="stroke: #000000; stroke-width: 0.8"/>
      </g>
     </g>
     <g id="text_8">
      <!-- $\mathdefault{\Delta E}_{\mathdefault{ij,Si}}$ -->
      <g transform="translate(57 70.2) scale(0.1 -0.1)">
       <use xlink:href="#ArialMT-394" transform="translate(0 0.421875)"/>
       <use xlink:href="#ArialMT-45" transform="translate(66.796875 0.421875)"/>
       <use xlink:href="#ArialMT-69" transform="translate(134.453125 -15.984375) scale(0.7)"/>
       <use xlink:href="#ArialMT-6a" transform="translate(150.004883 -15.984375) scale(0.7)"/>
       <use xlink:href="#ArialMT-2c" transform="translate(165.556641 -15.984375) scale(0.7)"/>
       <use xlink:href="#ArialMT-53" transform="translate(198.642578 -15.984375) scale(0.7)"/>
       <use xlink:href="#ArialMT-69" transform="translate(245.332031 -15.984375) scale(0.7)"/>
      </g>
     </g>
    </g>
    <g id="ytick_4">
     <g id="line2d_8">
      <g>
       <use xlink:href="#m91bbd6611f" x="90.4" y="90.36" style="stroke: #000000; stroke-width: 0.8"/>
      </g>
     </g>
     <g id="text_9">
      <!-- $\mathdefault{ln C}_{\mathdefault{form,OSDA,atom}}$ -->
      <g transform="translate(12 94.01) scale(0.1 -0.1)">
       <defs>
        <path id="ArialMT-43" d="M 3763 1606 
L 4369 1453 
Q 4178 706 3683 314 
Q 3188 -78 2472 -78 
Q 1731 -78 1267 223 
Q 803 525 561 1097 
Q 319 1669 319 2325 
Q 319 3041 592 3573 
Q 866 4106 1370 4382 
Q 1875 4659 2481 4659 
Q 3169 4659 3637 4309 
Q 4106 3959 4291 3325 
L 3694 3184 
Q 3534 3684 3231 3912 
Q 2928 4141 2469 4141 
Q 1941 4141 1586 3887 
Q 1231 3634 1087 3207 
Q 944 2781 944 2328 
Q 944 1744 1114 1308 
Q 1284 872 1643 656 
Q 2003 441 2422 441 
Q 2931 441 3284 734 
Q 3638 1028 3763 1606 
z
" transform="scale(0.015625)"/>
       </defs>
       <use xlink:href="#ArialMT-6c" transform="translate(0 0.203125)"/>
       <use xlink:href="#ArialMT-6e" transform="translate(22.216797 0.203125)"/>
       <use xlink:href="#ArialMT-43" transform="translate(77.832031 0.203125)"/>
       <use xlink:href="#ArialMT-66" transform="translate(151.005859 -16.203125) scale(0.7)"/>
       <use xlink:href="#ArialMT-6f" transform="translate(170.454102 -16.203125) scale(0.7)"/>
       <use xlink:href="#ArialMT-72" transform="translate(209.384766 -16.203125) scale(0.7)"/>
       <use xlink:href="#ArialMT-6d" transform="translate(232.695312 -16.203125) scale(0.7)"/>
       <use xlink:href="#ArialMT-2c" transform="translate(291.005859 -16.203125) scale(0.7)"/>
       <use xlink:href="#ArialMT-4f" transform="translate(324.091797 -16.203125) scale(0.7)"/>
       <use xlink:href="#ArialMT-53" transform="translate(378.540039 -16.203125) scale(0.7)"/>
       <use xlink:href="#ArialMT-44" transform="translate(425.229492 -16.203125) scale(0.7)"/>
       <use xlink:href="#ArialMT-41" transform="translate(475.78125 -16.203125) scale(0.7)"/>
       <use xlink:href="#ArialMT-2c" transform="translate(522.470703 -16.203125) scale(0.7)"/>
       <use xlink:href="#ArialMT-61" transform="translate(555.556641 -16.203125) scale(0.7)"/>
       <use xlink:href="#ArialMT-74" transform="translate(594.487305 -16.203125) scale(0.7)"/>
       <use xlink:href="#ArialMT-6f" transform="translate(613.935547 -16.203125) scale(0.7)"/>
       <use xlink:href="#ArialMT-6d" transform="translate(652.866211 -16.203125) scale(0.7)"/>
      </g>
     </g>
    </g>
    <g id="ytick_5">
     <g id="line2d_9">
      <g>
       <use xlink:href="#m91bbd6611f" x="90.4" y="114.12" style="stroke: #000000; stroke-width: 0.8"/>
      </g>
     </g>
     <g id="text_10">
      <!-- $\mathdefault{\Delta E}_{\mathdefault{form,ij,OSDA,mol}}$ -->
      <g transform="translate(11.5 117.72) scale(0.1 -0.1)">
       <use xlink:href="#ArialMT-394" transform="translate(0 0.421875)"/>
       <use xlink:href="#ArialMT-45" transform="translate(66.796875 0.421875)"/>
       <use xlink:href="#ArialMT-66" transform="translate(134.453125 -15.984375) scale(0.7)"/>
       <use xlink:href="#ArialMT-6f" transform="translate(153.901367 -15.984375) scale(0.7)"/>
       <use xlink:href="#ArialMT-72" transform="translate(192.832031 -15.984375) scale(0.7)"/>
       <use xlink:href="#ArialMT-6d" transform="translate(216.142578 -15.984375) scale(0.7)"/>
       <use xlink:href="#ArialMT-2c" transform="translate(274.453125 -15.984375) scale(0.7)"/>
       <use xlink:href="#ArialMT-69" transform="translate(307.539062 -15.984375) scale(0.7)"/>
       <use xlink:href="#ArialMT-6a" transform="translate(323.09082 -15.984375) scale(0.7)"/>
       <use xlink:href="#ArialMT-2c" transform="translate(338.642578 -15.984375) scale(0.7)"/>
       <use xlink:href="#ArialMT-4f" transform="translate(371.728516 -15.984375) scale(0.7)"/>
       <use xlink:href="#ArialMT-53" transform="translate(426.176758 -15.984375) scale(0.7)"/>
       <use xlink:href="#ArialMT-44" transform="translate(472.866211 -15.984375) scale(0.7)"/>
       <use xlink:href="#ArialMT-41" transform="translate(523.417969 -15.984375) scale(0.7)"/>
       <use xlink:href="#ArialMT-2c" transform="translate(570.107422 -15.984375) scale(0.7)"/>
       <use xlink:href="#ArialMT-6d" transform="translate(603.193359 -15.984375) scale(0.7)"/>
       <use xlink:href="#ArialMT-6f" transform="translate(661.503906 -15.984375) scale(0.7)"/>
       <use xlink:href="#ArialMT-6c" transform="translate(700.43457 -15.984375) scale(0.7)"/>
      </g>
     </g>
    </g>
    <g id="ytick_6">
     <g id="line2d_10">
      <g>
       <use xlink:href="#m91bbd6611f" x="90.4" y="137.88" style="stroke: #000000; stroke-width: 0.8"/>
      </g>
     </g>
     <g id="text_11">
      <!-- $\mathdefault{\Delta E}_{\mathdefault{ij,OSDA,atom}}$ -->
      <g transform="translate(24.5 141.48) scale(0.1 -0.1)">
       <use xlink:href="#ArialMT-394" transform="translate(0 0.421875)"/>
       <use xlink:href="#ArialMT-45" transform="translate(66.796875 0.421875)"/>
       <use xlink:href="#ArialMT-69" transform="translate(134.453125 -15.984375) scale(0.7)"/>
       <use xlink:href="#ArialMT-6a" transform="translate(150.004883 -15.984375) scale(0.7)"/>
       <use xlink:href="#ArialMT-2c" transform="translate(165.556641 -15.984375) scale(0.7)"/>
       <use xlink:href="#ArialMT-4f" transform="translate(198.642578 -15.984375) scale(0.7)"/>
       <use xlink:href="#ArialMT-53" transform="translate(253.09082 -15.984375) scale(0.7)"/>
       <use xlink:href="#ArialMT-44" transform="translate(299.780273 -15.984375) scale(0.7)"/>
       <use xlink:href="#ArialMT-41" transform="translate(350.332031 -15.984375) scale(0.7)"/>
       <use xlink:href="#ArialMT-2c" transform="translate(397.021484 -15.984375) scale(0.7)"/>
       <use xlink:href="#ArialMT-61" transform="translate(430.107422 -15.984375) scale(0.7)"/>
       <use xlink:href="#ArialMT-74" transform="translate(469.038086 -15.984375) scale(0.7)"/>
       <use xlink:href="#ArialMT-6f" transform="translate(488.486328 -15.984375) scale(0.7)"/>
       <use xlink:href="#ArialMT-6d" transform="translate(527.416992 -15.984375) scale(0.7)"/>
      </g>
     </g>
    </g>
    <g id="ytick_7">
     <g id="line2d_11">
      <g>
       <use xlink:href="#m91bbd6611f" x="90.4" y="161.64" style="stroke: #000000; stroke-width: 0.8"/>
      </g>
     </g>
     <g id="text_12">
      <!-- $\mathdefault{ln D}_{\mathdefault{form,Si}}$ -->
      <g transform="translate(44.4 165.24) scale(0.1 -0.1)">
       <use xlink:href="#ArialMT-6c" transform="translate(0 0.421875)"/>
       <use xlink:href="#ArialMT-6e" transform="translate(22.216797 0.421875)"/>
       <use xlink:href="#ArialMT-44" transform="translate(77.832031 0.421875)"/>
       <use xlink:href="#ArialMT-66" transform="translate(151.005859 -15.984375) scale(0.7)"/>
       <use xlink:href="#ArialMT-6f" transform="translate(170.454102 -15.984375) scale(0.7)"/>
       <use xlink:href="#ArialMT-72" transform="translate(209.384766 -15.984375) scale(0.7)"/>
       <use xlink:href="#ArialMT-6d" transform="translate(232.695312 -15.984375) scale(0.7)"/>
       <use xlink:href="#ArialMT-2c" transform="translate(291.005859 -15.984375) scale(0.7)"/>
       <use xlink:href="#ArialMT-53" transform="translate(324.091797 -15.984375) scale(0.7)"/>
       <use xlink:href="#ArialMT-69" transform="translate(370.78125 -15.984375) scale(0.7)"/>
      </g>
     </g>
    </g>
    <g id="ytick_8">
     <g id="line2d_12">
      <g>
       <use xlink:href="#m91bbd6611f" x="90.4" y="185.4" style="stroke: #000000; stroke-width: 0.8"/>
      </g>
     </g>
     <g id="text_13">
      <!-- $\mathdefault{ln D}_{\mathdefault{OSDA,atom}}$ -->
      <g transform="translate(29.3 189) scale(0.1 -0.1)">
       <use xlink:href="#ArialMT-6c" transform="translate(0 0.421875)"/>
       <use xlink:href="#ArialMT-6e" transform="translate(22.216797 0.421875)"/>
       <use xlink:href="#ArialMT-44" transform="translate(77.832031 0.421875)"/>
       <use xlink:href="#ArialMT-4f" transform="translate(151.005859 -15.984375) scale(0.7)"/>
       <use xlink:href="#ArialMT-53" transform="translate(205.454102 -15.984375) scale(0.7)"/>
       <use xlink:href="#ArialMT-44" transform="translate(252.143555 -15.984375) scale(0.7)"/>
       <use xlink:href="#ArialMT-41" transform="translate(302.695312 -15.984375) scale(0.7)"/>
       <use xlink:href="#ArialMT-2c" transform="translate(349.384766 -15.984375) scale(0.7)"/>
       <use xlink:href="#ArialMT-61" transform="translate(382.470703 -15.984375) scale(0.7)"/>
       <use xlink:href="#ArialMT-74" transform="translate(421.401367 -15.984375) scale(0.7)"/>
       <use xlink:href="#ArialMT-6f" transform="translate(440.849609 -15.984375) scale(0.7)"/>
       <use xlink:href="#ArialMT-6d" transform="translate(479.780273 -15.984375) scale(0.7)"/>
      </g>
     </g>
    </g>
    <g id="ytick_9">
     <g id="line2d_13">
      <g>
       <use xlink:href="#m91bbd6611f" x="90.4" y="209.16" style="stroke: #000000; stroke-width: 0.8"/>
      </g>
     </g>
     <g id="text_14">
      <!-- $\mathdefault{\Delta E}_{\mathdefault{form,j}}$ -->
      <g transform="translate(50.8 212.76) scale(0.1 -0.1)">
       <use xlink:href="#ArialMT-394" transform="translate(0 0.421875)"/>
       <use xlink:href="#ArialMT-45" transform="translate(66.796875 0.421875)"/>
       <use xlink:href="#ArialMT-66" transform="translate(134.453125 -15.984375) scale(0.7)"/>
       <use xlink:href="#ArialMT-6f" transform="translate(153.901367 -15.984375) scale(0.7)"/>
       <use xlink:href="#ArialMT-72" transform="translate(192.832031 -15.984375) scale(0.7)"/>
       <use xlink:href="#ArialMT-6d" transform="translate(216.142578 -15.984375) scale(0.7)"/>
       <use xlink:href="#ArialMT-2c" transform="translate(274.453125 -15.984375) scale(0.7)"/>
       <use xlink:href="#ArialMT-6a" transform="translate(307.539062 -15.984375) scale(0.7)"/>
      </g>
     </g>
    </g>
    <g id="ytick_10">
     <g id="line2d_14">
      <g>
       <use xlink:href="#m91bbd6611f" x="90.4" y="232.92" style="stroke: #000000; stroke-width: 0.8"/>
      </g>
     </g>
     <g id="text_15">
      <!-- $\mathdefault{ln C}_{\mathdefault{form,Si}}$ -->
      <g transform="translate(44.4 236.57) scale(0.1 -0.1)">
       <use xlink:href="#ArialMT-6c" transform="translate(0 0.203125)"/>
       <use xlink:href="#ArialMT-6e" transform="translate(22.216797 0.203125)"/>
       <use xlink:href="#ArialMT-43" transform="translate(77.832031 0.203125)"/>
       <use xlink:href="#ArialMT-66" transform="translate(151.005859 -16.203125) scale(0.7)"/>
       <use xlink:href="#ArialMT-6f" transform="translate(170.454102 -16.203125) scale(0.7)"/>
       <use xlink:href="#ArialMT-72" transform="translate(209.384766 -16.203125) scale(0.7)"/>
       <use xlink:href="#ArialMT-6d" transform="translate(232.695312 -16.203125) scale(0.7)"/>
       <use xlink:href="#ArialMT-2c" transform="translate(291.005859 -16.203125) scale(0.7)"/>
       <use xlink:href="#ArialMT-53" transform="translate(324.091797 -16.203125) scale(0.7)"/>
       <use xlink:href="#ArialMT-69" transform="translate(370.78125 -16.203125) scale(0.7)"/>
      </g>
     </g>
    </g>
    <g id="ytick_11">
     <g id="line2d_15">
      <g>
       <use xlink:href="#m91bbd6611f" x="90.4" y="256.68" style="stroke: #000000; stroke-width: 0.8"/>
      </g>
     </g>
     <g id="text_16">
      <!-- $\mathdefault{\Delta E}_{\mathdefault{ij,OSDA,mol}}$ -->
      <g transform="translate(28.8 260.28) scale(0.1 -0.1)">
       <use xlink:href="#ArialMT-394" transform="translate(0 0.421875)"/>
       <use xlink:href="#ArialMT-45" transform="translate(66.796875 0.421875)"/>
       <use xlink:href="#ArialMT-69" transform="translate(134.453125 -15.984375) scale(0.7)"/>
       <use xlink:href="#ArialMT-6a" transform="translate(150.004883 -15.984375) scale(0.7)"/>
       <use xlink:href="#ArialMT-2c" transform="translate(165.556641 -15.984375) scale(0.7)"/>
       <use xlink:href="#ArialMT-4f" transform="translate(198.642578 -15.984375) scale(0.7)"/>
       <use xlink:href="#ArialMT-53" transform="translate(253.09082 -15.984375) scale(0.7)"/>
       <use xlink:href="#ArialMT-44" transform="translate(299.780273 -15.984375) scale(0.7)"/>
       <use xlink:href="#ArialMT-41" transform="translate(350.332031 -15.984375) scale(0.7)"/>
       <use xlink:href="#ArialMT-2c" transform="translate(397.021484 -15.984375) scale(0.7)"/>
       <use xlink:href="#ArialMT-6d" transform="translate(430.107422 -15.984375) scale(0.7)"/>
       <use xlink:href="#ArialMT-6f" transform="translate(488.417969 -15.984375) scale(0.7)"/>
       <use xlink:href="#ArialMT-6c" transform="translate(527.348633 -15.984375) scale(0.7)"/>
      </g>
     </g>
    </g>
    <g id="ytick_12">
     <g id="line2d_16">
      <g>
       <use xlink:href="#m91bbd6611f" x="90.4" y="280.44" style="stroke: #000000; stroke-width: 0.8"/>
      </g>
     </g>
     <g id="text_17">
      <!-- $\mathdefault{\Delta E}_{\mathdefault{form,ij,Si}}$ -->
      <g transform="translate(39.7 284.04) scale(0.1 -0.1)">
       <use xlink:href="#ArialMT-394" transform="translate(0 0.421875)"/>
       <use xlink:href="#ArialMT-45" transform="translate(66.796875 0.421875)"/>
       <use xlink:href="#ArialMT-66" transform="translate(134.453125 -15.984375) scale(0.7)"/>
       <use xlink:href="#ArialMT-6f" transform="translate(153.901367 -15.984375) scale(0.7)"/>
       <use xlink:href="#ArialMT-72" transform="translate(192.832031 -15.984375) scale(0.7)"/>
       <use xlink:href="#ArialMT-6d" transform="translate(216.142578 -15.984375) scale(0.7)"/>
       <use xlink:href="#ArialMT-2c" transform="translate(274.453125 -15.984375) scale(0.7)"/>
       <use xlink:href="#ArialMT-69" transform="translate(307.539062 -15.984375) scale(0.7)"/>
       <use xlink:href="#ArialMT-6a" transform="translate(323.09082 -15.984375) scale(0.7)"/>
       <use xlink:href="#ArialMT-2c" transform="translate(338.642578 -15.984375) scale(0.7)"/>
       <use xlink:href="#ArialMT-53" transform="translate(371.728516 -15.984375) scale(0.7)"/>
       <use xlink:href="#ArialMT-69" transform="translate(418.417969 -15.984375) scale(0.7)"/>
      </g>
     </g>
    </g>
    <g id="ytick_13">
     <g id="line2d_17">
      <g>
       <use xlink:href="#m91bbd6611f" x="90.4" y="304.2" style="stroke: #000000; stroke-width: 0.8"/>
      </g>
     </g>
     <g id="text_18">
      <!-- $\mathdefault{ln C}_{\mathdefault{OSDA,mol}}$ -->
      <g transform="translate(33.6 307.85) scale(0.1 -0.1)">
       <use xlink:href="#ArialMT-6c" transform="translate(0 0.203125)"/>
       <use xlink:href="#ArialMT-6e" transform="translate(22.216797 0.203125)"/>
       <use xlink:href="#ArialMT-43" transform="translate(77.832031 0.203125)"/>
       <use xlink:href="#ArialMT-4f" transform="translate(151.005859 -16.203125) scale(0.7)"/>
       <use xlink:href="#ArialMT-53" transform="translate(205.454102 -16.203125) scale(0.7)"/>
       <use xlink:href="#ArialMT-44" transform="translate(252.143555 -16.203125) scale(0.7)"/>
       <use xlink:href="#ArialMT-41" transform="translate(302.695312 -16.203125) scale(0.7)"/>
       <use xlink:href="#ArialMT-2c" transform="translate(349.384766 -16.203125) scale(0.7)"/>
       <use xlink:href="#ArialMT-6d" transform="translate(382.470703 -16.203125) scale(0.7)"/>
       <use xlink:href="#ArialMT-6f" transform="translate(440.78125 -16.203125) scale(0.7)"/>
       <use xlink:href="#ArialMT-6c" transform="translate(479.711914 -16.203125) scale(0.7)"/>
      </g>
     </g>
    </g>
    <g id="ytick_14">
     <g id="line2d_18">
      <g>
       <use xlink:href="#m91bbd6611f" x="90.4" y="327.96" style="stroke: #000000; stroke-width: 0.8"/>
      </g>
     </g>
     <g id="text_19">
      <!-- $\mathdefault{ln C}_{\mathdefault{OSDA,atom}}$ -->
      <g transform="translate(29.3 331.61) scale(0.1 -0.1)">
       <use xlink:href="#ArialMT-6c" transform="translate(0 0.203125)"/>
       <use xlink:href="#ArialMT-6e" transform="translate(22.216797 0.203125)"/>
       <use xlink:href="#ArialMT-43" transform="translate(77.832031 0.203125)"/>
       <use xlink:href="#ArialMT-4f" transform="translate(151.005859 -16.203125) scale(0.7)"/>
       <use xlink:href="#ArialMT-53" transform="translate(205.454102 -16.203125) scale(0.7)"/>
       <use xlink:href="#ArialMT-44" transform="translate(252.143555 -16.203125) scale(0.7)"/>
       <use xlink:href="#ArialMT-41" transform="translate(302.695312 -16.203125) scale(0.7)"/>
       <use xlink:href="#ArialMT-2c" transform="translate(349.384766 -16.203125) scale(0.7)"/>
       <use xlink:href="#ArialMT-61" transform="translate(382.470703 -16.203125) scale(0.7)"/>
       <use xlink:href="#ArialMT-74" transform="translate(421.401367 -16.203125) scale(0.7)"/>
       <use xlink:href="#ArialMT-6f" transform="translate(440.849609 -16.203125) scale(0.7)"/>
       <use xlink:href="#ArialMT-6d" transform="translate(479.780273 -16.203125) scale(0.7)"/>
      </g>
     </g>
    </g>
   </g>
   <g id="line2d_19">
    <path clip-path="url(#p0907997899)" style="fill: none; stroke: #424242; stroke-width: 2.25; stroke-linecap: square"/>
   </g>
   <g id="line2d_20">
    <path clip-path="url(#p0907997899)" style="fill: none; stroke: #424242; stroke-width: 2.25; stroke-linecap: square"/>
   </g>
   <g id="line2d_21">
    <path clip-path="url(#p0907997899)" style="fill: none; stroke: #424242; stroke-width: 2.25; stroke-linecap: square"/>
   </g>
   <g id="line2d_22">
    <path clip-path="url(#p0907997899)" style="fill: none; stroke: #424242; stroke-width: 2.25; stroke-linecap: square"/>
   </g>
   <g id="line2d_23">
    <path clip-path="url(#p0907997899)" style="fill: none; stroke: #424242; stroke-width: 2.25; stroke-linecap: square"/>
   </g>
   <g id="line2d_24">
    <path clip-path="url(#p0907997899)" style="fill: none; stroke: #424242; stroke-width: 2.25; stroke-linecap: square"/>
   </g>
   <g id="line2d_25">
    <path clip-path="url(#p0907997899)" style="fill: none; stroke: #424242; stroke-width: 2.25; stroke-linecap: square"/>
   </g>
   <g id="line2d_26">
    <path clip-path="url(#p0907997899)" style="fill: none; stroke: #424242; stroke-width: 2.25; stroke-linecap: square"/>
   </g>
   <g id="line2d_27">
    <path clip-path="url(#p0907997899)" style="fill: none; stroke: #424242; stroke-width: 2.25; stroke-linecap: square"/>
   </g>
   <g id="line2d_28">
    <path clip-path="url(#p0907997899)" style="fill: none; stroke: #424242; stroke-width: 2.25; stroke-linecap: square"/>
   </g>
   <g id="line2d_29">
    <path clip-path="url(#p0907997899)" style="fill: none; stroke: #424242; stroke-width: 2.25; stroke-linecap: square"/>
   </g>
   <g id="line2d_30">
    <path clip-path="url(#p0907997899)" style="fill: none; stroke: #424242; stroke-width: 2.25; stroke-linecap: square"/>
   </g>
   <g id="line2d_31">
    <path clip-path="url(#p0907997899)" style="fill: none; stroke: #424242; stroke-width: 2.25; stroke-linecap: square"/>
   </g>
   <g id="line2d_32">
    <path clip-path="url(#p0907997899)" style="fill: none; stroke: #424242; stroke-width: 2.25; stroke-linecap: square"/>
   </g>
   <g id="patch_17">
    <path d="M 90.4 339.84 
L 90.4 7.2 
" style="fill: none; stroke: #000000; stroke-width: 0.8; stroke-linejoin: miter; stroke-linecap: square"/>
   </g>
   <g id="patch_18">
    <path d="M 257.8 339.84 
L 257.8 7.2 
" style="fill: none; stroke: #000000; stroke-width: 0.8; stroke-linejoin: miter; stroke-linecap: square"/>
   </g>
   <g id="patch_19">
    <path d="M 90.4 339.84 
L 257.8 339.84 
" style="fill: none; stroke: #000000; stroke-width: 0.8; stroke-linejoin: miter; stroke-linecap: square"/>
   </g>
   <g id="patch_20">
    <path d="M 90.4 7.2 
L 257.8 7.2 
" style="fill: none; stroke: #000000; stroke-width: 0.8; stroke-linejoin: miter; stroke-linecap: square"/>
   </g>
  </g>
 </g>
 <defs>
  <clipPath id="p0907997899">
   <rect x="90.4" y="7.2" width="167.4" height="332.64"/>
  </clipPath>
 </defs>
</svg>
